<svg width="65" height="44" viewBox="0 0 65 44" fill="none" xmlns="http://www.w3.org/2000/svg">
<path d="M53.6666 5.3811C51.9832 1.61369 48.0617 1.31576 46.2324 2.92075C44.7436 4.19898 44.0332 7.39936 45.3858 10.3114C47.7309 15.3186 53.6666 18 53.6666 18C53.6666 18 59.6024 15.3667 61.9474 10.3595C63.3 7.47624 62.5897 4.28548 61.1009 2.96881C59.2715 1.31576 55.35 1.61369 53.6666 5.3811Z" stroke="white" stroke-width="3" stroke-linecap="round" stroke-linejoin="round"/>
<path d="M46.6666 10H50.9715L53.7428 13L56.5142 7L58.3618 10H60.6666" stroke="white" stroke-width="2" stroke-linecap="round" stroke-linejoin="round"/>
<path d="M39.9166 36.25C39.9166 37.6866 39.3459 39.0643 38.3301 40.0801C37.3143 41.096 35.9365 41.6666 34.5 41.6666C33.0634 41.6666 31.6856 41.096 30.6698 40.0801C29.654 39.0643 29.0833 37.6866 29.0833 36.25C29.0833 34.8134 29.654 33.4356 30.6698 32.4198C31.6856 31.404 33.0634 30.8333 34.5 30.8333C35.9365 30.8333 37.3143 31.404 38.3301 32.4198C39.3459 33.4356 39.9166 34.8134 39.9166 36.25ZM18.25 36.25C18.25 37.6866 17.6793 39.0643 16.6635 40.0801C15.6476 41.096 14.2699 41.6666 12.8333 41.6666C11.3967 41.6666 10.019 41.096 9.00313 40.0801C7.98731 39.0643 7.41663 37.6866 7.41663 36.25C7.41663 34.8134 7.98731 33.4356 9.00313 32.4198C10.019 31.404 11.3967 30.8333 12.8333 30.8333C14.2699 30.8333 15.6476 31.404 16.6635 32.4198C17.6793 33.4356 18.25 34.8134 18.25 36.25Z" stroke="white" stroke-width="3" stroke-linecap="round" stroke-linejoin="round"/>
<path d="M29.0833 36.25H18.25M30.1667 31.9167V13.5C30.1667 10.4363 30.1667 8.9045 29.2133 7.95333C28.2643 7 26.7325 7 23.6667 7H8.5C5.43633 7 3.9045 7 2.95333 7.95333C2 8.90233 2 10.4342 2 13.5V30.8333C2 32.8592 2 33.871 2.4355 34.625C2.72074 35.119 3.13098 35.5293 3.625 35.8145C4.379 36.25 5.39083 36.25 7.41667 36.25M31.25 12.4167H35.1522C36.9505 12.4167 37.8497 12.4167 38.595 12.8392C39.3403 13.2595 39.8018 14.0308 40.727 15.5735L44.4082 21.7052C44.8675 22.4722 45.0972 22.8578 45.2163 23.2825C45.3333 23.7093 45.3333 24.1557 45.3333 25.0505V30.8333C45.3333 32.8592 45.3333 33.871 44.8978 34.625C44.6126 35.119 44.2024 35.5293 43.7083 35.8145C42.9543 36.25 41.9425 36.25 39.9167 36.25" stroke="white" stroke-width="3" stroke-linecap="round" stroke-linejoin="round"/>
<path d="M17.8752 24.3333L21.0948 21.7897C22.8087 20.4333 23.6667 19.7573 23.6667 18.9167M23.6667 18.9167C23.6667 18.076 22.8087 17.4 21.0948 16.0437L17.8752 13.5M23.6667 18.9167H8.5" stroke="white" stroke-width="3" stroke-linecap="round" stroke-linejoin="round"/>
</svg>
