<svg width="749" height="499" viewBox="0 0 749 499" fill="none" xmlns="http://www.w3.org/2000/svg">
<path d="M628.468 53.6458C608.41 8.75592 561.684 5.20596 539.887 24.33C522.147 39.5605 513.683 77.694 529.8 112.392C557.742 172.054 628.468 204.004 628.468 204.004C628.468 204.004 699.195 172.627 727.137 112.965C743.253 78.6101 734.789 40.5911 717.05 24.9026C695.252 5.20596 648.527 8.75592 628.468 53.6458Z" stroke="#72625A" stroke-width="25" stroke-linecap="round" stroke-linejoin="round"/>
<path d="M545.061 108.681H596.354L629.376 144.427L662.398 72.9354L684.412 108.681H711.875" stroke="#72625A" stroke-width="25" stroke-linecap="round" stroke-linejoin="round"/>
<path d="M464.632 421.458C464.632 438.576 457.832 454.992 445.729 467.096C433.625 479.2 417.208 486 400.091 486C382.973 486 366.557 479.2 354.453 467.096C342.349 454.992 335.55 438.576 335.55 421.458C335.55 404.341 342.349 387.925 354.453 375.821C366.557 363.717 382.973 356.917 400.091 356.917C417.208 356.917 433.625 363.717 445.729 375.821C457.832 387.925 464.632 404.341 464.632 421.458ZM206.467 421.458C206.467 438.576 199.667 454.992 187.563 467.096C175.459 479.2 159.043 486 141.925 486C124.808 486 108.392 479.2 96.2878 467.096C84.184 454.992 77.3841 438.576 77.3841 421.458C77.3841 404.341 84.184 387.925 96.2878 375.821C108.392 363.717 124.808 356.917 141.925 356.917C159.043 356.917 175.459 363.717 187.563 375.821C199.667 387.925 206.467 404.341 206.467 421.458Z" stroke="#72625A" stroke-width="25" stroke-linecap="round" stroke-linejoin="round"/>
<path d="M335.55 421.459H206.467M348.458 369.826V150.385C348.458 113.88 348.458 95.6282 337.099 84.2947C325.791 72.9354 307.539 72.9354 271.009 72.9354H90.2928C53.7882 72.9354 35.5359 72.9354 24.2025 84.2947C12.8432 95.6024 12.8432 113.855 12.8432 150.385V356.917C12.8432 381.056 12.8432 393.112 18.0323 402.096C21.431 407.983 26.3192 412.871 32.2056 416.27C41.1898 421.459 53.2461 421.459 77.3846 421.459M361.367 137.477H407.862C429.29 137.477 440.004 137.477 448.885 142.511C457.766 147.519 463.265 156.71 474.288 175.092L518.15 248.152C523.624 257.291 526.36 261.887 527.78 266.947C529.174 272.033 529.174 277.351 529.174 288.013V356.917C529.174 381.056 529.174 393.112 523.985 402.096C520.586 407.983 515.698 412.871 509.812 416.27C500.828 421.459 488.771 421.459 464.633 421.459" stroke="#72625A" stroke-width="25" stroke-linecap="round" stroke-linejoin="round"/>
<path d="M202.001 279.468L240.364 249.159C260.785 232.998 271.009 224.943 271.009 214.926M271.009 214.926C271.009 204.909 260.785 196.855 240.364 180.694L202.001 150.385M271.009 214.926H90.2927" stroke="#72625A" stroke-width="25" stroke-linecap="round" stroke-linejoin="round"/>
</svg>