<svg width="48" height="41" viewBox="0 0 48 41" fill="none" xmlns="http://www.w3.org/2000/svg">
<path fill-rule="evenodd" clip-rule="evenodd" d="M6.12186 1.73993C7.4198 0.480094 9.06874 0 10.5209 0C11.5278 0 12.5308 0.430317 13.2804 0.811903C14.0913 1.22474 14.9334 1.75811 15.6791 2.24183C15.8434 2.34845 16.0023 2.45209 16.156 2.55236C16.7353 2.9303 17.2412 3.26039 17.6923 3.52226C17.9724 3.68486 18.1791 3.78979 18.3228 3.8498C18.3404 3.85715 18.3557 3.86323 18.3688 3.86824C18.8516 3.86127 19.1702 3.81511 19.6546 3.74494C19.7659 3.72882 19.8859 3.71143 20.0187 3.69297C20.7997 3.5843 21.7819 3.48051 23.5 3.48051C25.2181 3.48051 26.2003 3.5843 26.9813 3.69297C27.1141 3.71143 27.2341 3.72882 27.3454 3.74494C27.8298 3.81511 28.1484 3.86127 28.6312 3.86824C28.6443 3.86323 28.6596 3.85715 28.6772 3.8498C28.8209 3.78979 29.0276 3.68486 29.3077 3.52226C29.7588 3.2604 30.2647 2.93031 30.844 2.55237C30.9977 2.4521 31.1566 2.34846 31.3209 2.24183C32.0666 1.75811 32.9087 1.22474 33.7196 0.811903C34.4692 0.430317 35.4722 0 36.4791 0C37.9313 0 39.5802 0.480095 40.8781 1.73994C42.2038 3.02667 42.9568 4.92493 42.9568 7.35029L42.9568 11.9928C42.9555 12.7146 42.8472 14.1584 42.4823 15.3639C42.3642 15.7539 42.1695 16.2967 41.8273 16.7935C42.4655 18.2018 42.7622 19.6473 42.8964 21.0322C43.0347 22.4606 43.0037 23.9726 42.9766 25.2963C42.9664 25.7915 42.9568 26.2604 42.9568 26.6887C42.9568 32.4917 39.4132 36.135 35.3818 38.2237C31.4024 40.2854 26.6979 41 23.5 41C20.3021 41 15.5976 40.2854 11.6182 38.2237C7.58683 36.135 4.04318 32.4917 4.04318 26.6887C4.04318 26.2604 4.03356 25.7915 4.02341 25.2963C3.99626 23.9726 3.96526 22.4606 4.10365 21.0322C4.23783 19.6472 4.53454 18.2016 5.17289 16.7932C4.83087 16.2963 4.63637 15.7536 4.51848 15.3639C4.1539 14.1589 4.04578 12.7164 4.04319 11.9988L4.04316 11.9918L4.04318 7.35029C4.04318 4.92493 4.79621 3.02667 6.12186 1.73993ZM7.95541 13.0694C8.05239 12.984 8.15154 12.8994 8.2529 12.8156C9.07166 12.1385 10.2794 12.2593 10.9505 13.0854C11.6216 13.9114 11.5019 15.13 10.6831 15.8071C10.1664 16.2344 9.75574 16.6701 9.42166 17.1137C8.48502 18.3617 8.07636 19.786 7.91917 21.4085C7.8041 22.5962 7.82791 23.7393 7.85358 24.9717C7.86504 25.5222 7.87688 26.0906 7.87688 26.6887C7.87688 30.5548 10.1216 33.1002 13.3695 34.7829C16.6692 36.4925 20.7347 37.1321 23.5 37.1321C26.2653 37.1321 30.3308 36.4925 33.6305 34.7829C36.8784 33.1002 39.1231 30.5548 39.1231 26.6887C39.1231 26.0906 39.135 25.5222 39.1464 24.9717C39.1721 23.7393 39.1959 22.5962 39.0808 21.4085C38.9236 19.7858 38.5149 18.3613 37.578 17.1132C37.244 16.6698 36.8334 16.2342 36.3169 15.8071C35.4981 15.13 35.3784 13.9114 36.0495 13.0854C36.7206 12.2593 37.9283 12.1385 38.7471 12.8156C38.8487 12.8996 38.9481 12.9844 39.0453 13.07C39.0984 12.645 39.1226 12.2451 39.1231 11.9873V7.35029C39.1231 5.75302 38.6486 4.94311 38.2202 4.52734C37.7642 4.08468 37.1327 3.86792 36.4791 3.86792C36.467 3.8691 36.38 3.87771 36.1994 3.93757C36.0006 4.00345 35.7503 4.11053 35.4466 4.26513C34.8325 4.57777 34.1397 5.01169 33.3943 5.49526C33.2564 5.58472 33.1154 5.67677 32.9727 5.76992C32.3837 6.15442 31.7661 6.55761 31.2195 6.87488C30.8748 7.07501 30.5059 7.27236 30.1427 7.42394C29.8151 7.5607 29.3167 7.73709 28.762 7.73709C27.9102 7.73709 27.3049 7.64824 26.7537 7.56733C26.6536 7.55265 26.5553 7.53822 26.4577 7.52464C25.8419 7.43897 25.0349 7.34844 23.5 7.34844C21.9651 7.34844 21.1581 7.43897 20.5423 7.52464C20.4447 7.53822 20.3464 7.55265 20.2463 7.56733C19.6951 7.64824 19.0898 7.73709 18.238 7.73709C17.6833 7.73709 17.1849 7.5607 16.8573 7.42394C16.4941 7.27236 16.1252 7.07501 15.7805 6.87488C15.2339 6.55761 14.6163 6.15441 14.0273 5.76991C13.8846 5.67677 13.7436 5.58472 13.6057 5.49525C12.8603 5.01169 12.1675 4.57777 11.5534 4.26513C11.2497 4.11053 10.9994 4.00345 10.8006 3.93757C10.62 3.87771 10.5334 3.86929 10.5213 3.86812C9.86775 3.86812 9.23583 4.08468 8.77978 4.52734C8.35143 4.94311 7.87688 5.75302 7.87688 7.35029V11.9879C7.878 12.2465 7.9024 12.6455 7.95541 13.0694Z" fill="white"/>
<path fill-rule="evenodd" clip-rule="evenodd" d="M16.9978 23.0117C16.9845 23.0113 16.971 23.0111 16.9574 23.0111C16.9438 23.0111 16.9304 23.0113 16.917 23.0117C16.917 23.0117 16.917 23.0117 16.917 23.0117M16.917 23.0117C16.9304 23.0121 16.9438 23.0123 16.9574 23.0123C16.971 23.0123 16.9845 23.0121 16.9978 23.0117C16.9978 23.0117 16.9978 23.0117 16.9978 23.0117M14.5489 20.6184C14.889 19.9728 15.6623 19 16.9574 19C18.2567 19 19.0292 19.9799 19.3667 20.6217C19.7414 21.3342 19.9149 22.1832 19.9149 23.0117C19.9149 23.8409 19.7417 24.6903 19.3664 25.4034C19.0275 26.0471 18.2547 27.0234 16.9574 27.0234C15.6602 27.0234 14.8874 26.0471 14.5485 25.4034C14.1732 24.6903 14 23.8409 14 23.0117C14 22.1819 14.1729 21.332 14.5489 20.6184ZM30.0426 23.0123C30.0561 23.0123 30.0696 23.0121 30.0829 23.0117C30.0696 23.0113 30.0561 23.0111 30.0426 23.0111C30.029 23.0111 30.0155 23.0113 30.0022 23.0117C30.0155 23.0121 30.029 23.0123 30.0426 23.0123ZM27.634 20.6184C27.9741 19.9728 28.7474 19 30.0426 19C31.3419 19 32.1143 19.9799 32.4518 20.6217C32.8266 21.3342 33 22.1832 33 23.0117C33 23.8409 32.8268 24.6903 32.4515 25.4034C32.1126 26.0471 31.3398 27.0234 30.0426 27.0234C28.7453 27.0234 27.9725 26.0471 27.6336 25.4034C27.2583 24.6903 27.0851 23.8409 27.0851 23.0117C27.0851 22.1819 27.2581 21.332 27.634 20.6184ZM23.5075 29.8777C23.5884 29.6962 23.6507 29.466 23.6507 29.1901C23.6507 28.9142 23.5884 28.6842 23.5076 28.503C23.5073 28.5038 23.5069 28.5046 23.5065 28.5054C23.4263 28.6863 23.3646 28.9154 23.3646 29.1901C23.3646 29.4652 23.4263 29.6946 23.5065 29.8756C23.5068 29.8763 23.5072 29.877 23.5075 29.8777ZM21.5104 26.7808C22.119 26.5039 22.8264 26.3827 23.5065 26.3827C24.1892 26.3827 24.8971 26.505 25.5055 26.7822C25.8065 26.9193 26.1706 27.1341 26.4867 27.4745C26.811 27.8236 27.1684 28.4059 27.1684 29.1901C27.1684 29.9713 26.8141 30.5534 26.4892 30.9045C26.173 31.2462 25.8084 31.4619 25.5069 31.5996C24.8977 31.8778 24.189 32 23.5065 32C22.8247 32 22.1164 31.8776 21.5075 31.5993C21.2062 31.4616 20.8418 31.2458 20.5257 30.9042C20.2011 30.5532 19.8469 29.9713 19.8469 29.1901C19.8469 28.4082 20.2016 27.8258 20.5274 27.4746C20.8442 27.133 21.2091 26.9179 21.5104 26.7808Z" fill="white"/>
<path fill-rule="evenodd" clip-rule="evenodd" d="M6.0828 27.8928C4.5694 28.4838 3.36074 29.0966 3.05207 29.3246C2.19 29.9613 0.986677 29.7624 0.364362 28.8804C-0.257953 27.9985 -0.0636 26.7674 0.798463 26.1307C1.55821 25.5696 3.19718 24.8033 4.70969 24.2126C5.50583 23.9017 6.34559 23.6086 7.12271 23.3903C7.85847 23.1836 8.68725 23 9.40198 23C10.4652 23 11.3271 23.8818 11.3271 24.9696C11.3271 26.0573 10.4652 26.9392 9.40198 26.9392C9.226 26.9392 8.80838 27.0017 8.14218 27.1888C7.51735 27.3644 6.7996 27.6128 6.0828 27.8928ZM36.6729 24.9696C36.6729 23.8818 37.5348 23 38.598 23C39.3127 23 40.1416 23.1836 40.8775 23.3902C41.6548 23.6085 42.4947 23.9016 43.291 24.2126C44.8032 24.803 46.4435 25.5696 47.2031 26.1318C48.0645 26.7694 48.2577 28.0007 47.6345 28.882C47.0114 29.7634 45.8079 29.961 44.9464 29.3234C44.6398 29.0965 43.4324 28.4841 41.9181 27.8928C41.2012 27.6129 40.4833 27.3644 39.8583 27.1889C39.1918 27.0017 38.7741 26.9392 38.598 26.9392C37.5348 26.9392 36.6729 26.0573 36.6729 24.9696ZM6.89921 35.4142C6.79877 35.4891 6.7031 35.5605 6.61272 35.6272C5.75066 36.2639 4.54733 36.0651 3.92502 35.1831C3.3027 34.3011 3.49706 33.07 4.35912 32.4333C4.42963 32.3813 4.5104 32.3209 4.60024 32.2537C5.13457 31.8543 5.98949 31.2152 6.91164 30.6588C7.915 30.0534 9.37562 29.3027 10.828 29.3027C11.8912 29.3027 12.7531 30.1845 12.7531 31.2722C12.7531 32.36 11.8912 33.2418 10.828 33.2418C10.499 33.2418 9.82274 33.4755 8.86752 34.0519C8.12384 34.5006 7.44174 35.0094 6.89921 35.4142ZM35.2469 31.2722C35.2469 30.1845 36.1088 29.3027 37.172 29.3027C38.6244 29.3027 40.085 30.0534 41.0884 30.6588C42.0105 31.2152 42.8655 31.8543 43.3998 32.2537C43.4896 32.3209 43.5704 32.3813 43.6409 32.4333C44.5029 33.07 44.6973 34.3011 44.075 35.1831C43.4527 36.0651 42.2493 36.2639 41.3873 35.6272C41.2969 35.5605 41.2012 35.4891 41.1008 35.4142C40.5583 35.0094 39.8762 34.5006 39.1325 34.0519C38.1773 33.4755 37.501 33.2418 37.172 33.2418C36.1088 33.2418 35.2469 32.36 35.2469 31.2722Z" fill="white"/>
</svg>
