<svg width="34" height="34" viewBox="0 0 34 34" fill="none" xmlns="http://www.w3.org/2000/svg">
<path d="M8 18.5H2C1.60218 18.5 1.22064 18.658 0.93934 18.9393C0.658035 19.2206 0.5 19.6022 0.5 20V32C0.5 32.3978 0.658035 32.7794 0.93934 33.0607C1.22064 33.342 1.60218 33.5 2 33.5H8C8.39782 33.5 8.77935 33.342 9.06066 33.0607C9.34196 32.7794 9.5 32.3978 9.5 32V20C9.5 19.6022 9.34196 19.2206 9.06066 18.9393C8.77935 18.658 8.39782 18.5 8 18.5ZM6.5 30.5H3.5V21.5H6.5V30.5ZM32 12.5H26C25.6022 12.5 25.2206 12.658 24.9393 12.9393C24.658 13.2206 24.5 13.6022 24.5 14V32C24.5 32.3978 24.658 32.7794 24.9393 33.0607C25.2206 33.342 25.6022 33.5 26 33.5H32C32.3978 33.5 32.7794 33.342 33.0607 33.0607C33.342 32.7794 33.5 32.3978 33.5 32V14C33.5 13.6022 33.342 13.2206 33.0607 12.9393C32.7794 12.658 32.3978 12.5 32 12.5ZM30.5 30.5H27.5V15.5H30.5V30.5ZM20 0.5H14C13.6022 0.5 13.2206 0.658035 12.9393 0.93934C12.658 1.22064 12.5 1.60218 12.5 2V32C12.5 32.3978 12.658 32.7794 12.9393 33.0607C13.2206 33.342 13.6022 33.5 14 33.5H20C20.3978 33.5 20.7794 33.342 21.0607 33.0607C21.342 32.7794 21.5 32.3978 21.5 32V2C21.5 1.60218 21.342 1.22064 21.0607 0.93934C20.7794 0.658035 20.3978 0.5 20 0.5ZM18.5 30.5H15.5V3.5H18.5V30.5Z" fill="white"/>
</svg>
