<svg width="40" height="40" viewBox="0 0 40 40" fill="none" xmlns="http://www.w3.org/2000/svg">
<path d="M7.16667 17.2222C7.16667 16.6313 7.28306 16.0461 7.50921 15.5001C7.73535 14.9542 8.06682 14.4581 8.48469 14.0402C8.90255 13.6224 9.39863 13.2909 9.94459 13.0648C10.4906 12.8386 11.0757 12.7222 11.6667 12.7222C12.2576 12.7222 12.8428 12.8386 13.3887 13.0648C13.9347 13.2909 14.4308 13.6224 14.8486 14.0402C15.2665 14.4581 15.598 14.9542 15.8241 15.5001C16.0503 16.0461 16.1667 16.6313 16.1667 17.2222C16.1667 18.4157 15.6926 19.5603 14.8486 20.4042C14.0047 21.2481 12.8601 21.7222 11.6667 21.7222C10.4732 21.7222 9.3286 21.2481 8.48469 20.4042C7.64077 19.5603 7.16667 18.4157 7.16667 17.2222ZM11.6667 15.0556C11.092 15.0556 10.5409 15.2838 10.1346 15.6902C9.72827 16.0965 9.5 16.6476 9.5 17.2222C9.5 17.7969 9.72827 18.348 10.1346 18.7543C10.5409 19.1606 11.092 19.3889 11.6667 19.3889C12.2413 19.3889 12.7924 19.1606 13.1987 18.7543C13.6051 18.348 13.8333 17.7969 13.8333 17.2222C13.8333 16.6476 13.6051 16.0965 13.1987 15.6902C12.7924 15.2838 12.2413 15.0556 11.6667 15.0556ZM8.48469 26.2625C9.3286 25.4186 10.4732 24.9444 11.6667 24.9444C12.8601 24.9444 14.0047 25.4186 14.8486 26.2625C15.6926 27.1064 16.1667 28.251 16.1667 29.4444C16.1667 30.6379 15.6926 31.7825 14.8486 32.6264C14.0047 33.4703 12.8601 33.9444 11.6667 33.9444C10.4732 33.9444 9.3286 33.4703 8.48469 32.6264C7.64077 31.7825 7.16667 30.6379 7.16667 29.4444C7.16667 28.251 7.64077 27.1064 8.48469 26.2625ZM10.1346 27.9124C9.72827 28.3187 9.5 28.8698 9.5 29.4444C9.5 30.0191 9.72827 30.5702 10.1346 30.9765C10.5409 31.3828 11.092 31.6111 11.6667 31.6111C12.2413 31.6111 12.7924 31.3828 13.1987 30.9765C13.6051 30.5702 13.8333 30.0191 13.8333 29.4444C13.8333 28.8698 13.6051 28.3187 13.1987 27.9124C12.7924 27.5061 12.2413 27.2778 11.6667 27.2778C11.092 27.2778 10.5409 27.5061 10.1346 27.9124ZM20.5 17.2222C20.5 16.9128 20.6229 16.6161 20.8417 16.3973C21.0605 16.1785 21.3573 16.0556 21.6667 16.0556H31.6667C31.9761 16.0556 32.2728 16.1785 32.4916 16.3973C32.7104 16.6161 32.8333 16.9128 32.8333 17.2222C32.8333 17.5316 32.7104 17.8284 32.4916 18.0472C32.2728 18.266 31.9761 18.3889 31.6667 18.3889H21.6667C21.3572 18.3889 21.0605 18.266 20.8417 18.0472C20.6229 17.8284 20.5 17.5316 20.5 17.2222ZM20.8417 28.6195C21.0605 28.4007 21.3573 28.2778 21.6667 28.2778H31.6667C31.9761 28.2778 32.2728 28.4007 32.4916 28.6195C32.7104 28.8383 32.8333 29.135 32.8333 29.4444C32.8333 29.7539 32.7104 30.0506 32.4916 30.2694C32.2728 30.4882 31.9761 30.6111 31.6667 30.6111H21.6667C21.3572 30.6111 21.0605 30.4882 20.8417 30.2694C20.6229 30.0506 20.5 29.7539 20.5 29.4444C20.5 29.135 20.6229 28.8383 20.8417 28.6195ZM7.16667 8.33333C7.16667 8.02391 7.28958 7.72717 7.50838 7.50838C7.72717 7.28958 8.02391 7.16667 8.33333 7.16667H20H31.6667C31.9761 7.16667 32.2728 7.28958 32.4916 7.50838C32.7104 7.72717 32.8333 8.02391 32.8333 8.33333C32.8333 8.64275 32.7104 8.9395 32.4916 9.15829C32.2728 9.37708 31.9761 9.5 31.6667 9.5H8.33333C8.02391 9.5 7.72717 9.37708 7.50838 9.15829C7.28958 8.9395 7.16667 8.64275 7.16667 8.33333ZM2.46889 2.46889C3.72955 1.20823 5.43938 0.5 7.22222 0.5H32.7778C34.5606 0.5 36.2704 1.20823 37.5311 2.46889C38.7918 3.72955 39.5 5.43938 39.5 7.22222V32.7778C39.5 34.5606 38.7918 36.2704 37.5311 37.5311C36.2704 38.7918 34.5606 39.5 32.7778 39.5H7.22222C5.43938 39.5 3.72955 38.7918 2.46889 37.5311C1.20823 36.2704 0.5 34.5606 0.5 32.7778V7.22222C0.5 5.43938 1.20823 3.72955 2.46889 2.46889ZM7.22222 2.83333C4.79941 2.83333 2.83333 4.79941 2.83333 7.22222V32.7778C2.83333 33.9418 3.29573 35.0581 4.11881 35.8812C4.94189 36.7043 6.05822 37.1667 7.22222 37.1667H32.7778C33.9418 37.1667 35.0581 36.7043 35.8812 35.8812C36.7043 35.0581 37.1667 33.9418 37.1667 32.7778V7.22222C37.1667 4.79941 35.2006 2.83333 32.7778 2.83333H7.22222Z" fill="white" stroke="white"/>
</svg>
