<svg width="223" height="186" viewBox="0 0 223 186" fill="none" xmlns="http://www.w3.org/2000/svg">
<path d="M141.611 4C154.181 4 164.202 8.05984 171.071 14.9288C177.94 21.7977 182 31.8186 182 44.3887V141.611C182 154.181 177.94 164.202 171.071 171.071C164.202 177.94 154.181 182 141.611 182H44.3887C31.8186 182 21.7977 177.94 14.9288 171.071C8.05984 164.202 4 154.181 4 141.611V44.3887C4 31.8186 8.05984 21.7977 14.9288 14.9288C21.7977 8.05984 31.8186 4 44.3887 4H141.611Z" fill="url(#paint0_linear_8_209)"/>
<path fill-rule="evenodd" clip-rule="evenodd" d="M44.0821 7.75C32.4122 7.75 23.4703 11.5211 17.4648 17.5592L17.4648 17.5592C11.4592 23.5972 7.70833 32.5874 7.70833 44.3204V141.68C7.70833 153.412 11.4591 162.402 17.4648 168.44L14.7654 171.154L17.4649 168.44C23.4704 174.479 32.4122 178.25 44.0821 178.25H140.918C152.588 178.25 161.529 174.479 167.535 168.44C173.541 162.402 177.292 153.412 177.292 141.68V44.3204C177.292 32.5874 173.541 23.5973 167.535 17.5593L170.234 14.8452L167.535 17.5592C161.529 11.521 152.588 7.75 140.918 7.75H44.0821ZM12.0142 12.0791C19.6917 4.35998 30.712 0 44.0821 0H140.918C154.288 0 165.308 4.36004 172.985 12.0791C180.663 19.7981 185 30.878 185 44.3204V141.68C185 155.122 180.663 166.201 172.985 173.92C165.308 181.64 154.288 186 140.918 186H44.0821C30.7119 186 19.6917 181.64 12.0141 173.92L14.7395 171.18L12.0141 173.92C4.3366 166.201 0 155.122 0 141.68V44.3204C0 30.878 4.33651 19.7982 12.0142 12.0791Z" fill="url(#paint1_linear_8_209)"/>
<path d="M47.6676 42L88.6284 110.4V156L25 49.3357L47.6676 42ZM139.531 42L98.3716 110.4V156L162 49.3357L139.531 42Z" fill="url(#paint2_linear_8_209)"/>
<path fill-rule="evenodd" clip-rule="evenodd" d="M72.2308 76H123L121.462 79.0769H72.2308V76ZM72.2308 85.2308H109.154V88.3077H72.2308V85.2308ZM72.2308 94.4615H109.154V97.5385H72.2308V94.4615ZM72.2308 103.692H109.154V106.769H72.2308V103.692ZM64.5385 112.923H109.154V116H63L64.5385 112.923Z" fill="url(#paint3_linear_8_209)"/>
<path d="M148.865 169C148.145 169 147.426 168.895 146.707 168.685C145.988 168.579 145.269 168.474 144.55 168.369C142.701 167.843 141.417 166.739 140.698 165.057C139.773 162.954 139.773 160.431 140.698 157.486C141.725 154.437 143.369 150.547 145.629 145.815C146.04 144.974 146.45 144.028 146.861 142.976C147.375 141.925 147.837 140.926 148.248 139.98C146.913 140.505 145.475 141.399 143.934 142.661C142.495 143.817 141.006 145.027 139.465 146.288C138.438 147.024 137.308 147.34 136.075 147.235C134.739 147.024 133.661 146.446 132.839 145.5C132.12 144.448 131.863 143.292 132.068 142.03C132.171 140.768 132.685 139.664 133.609 138.718C135.048 137.666 136.537 136.51 138.078 135.248C139.722 133.986 141.365 132.935 143.009 132.094C147.221 129.885 151.073 129.307 154.566 130.359C156.21 130.674 157.442 131.726 158.264 133.513C159.086 135.195 159.035 137.298 158.11 139.822C157.288 142.345 155.85 145.763 153.795 150.074C153.282 151.335 152.717 152.597 152.1 153.859C151.587 155.121 151.073 156.33 150.56 157.486C150.457 157.907 150.303 158.275 150.097 158.59C149.995 158.906 149.892 159.221 149.789 159.537C151.946 159.221 155.08 158.117 159.189 156.225C163.401 154.227 169.051 150.336 176.139 144.553C179.94 141.504 183.381 138.56 186.463 135.721C189.545 132.777 192.01 130.359 193.859 128.466C195.709 126.573 196.633 125.627 196.633 125.627C197.866 124.155 199.355 123.682 201.102 124.208C201.924 124.313 202.591 124.681 203.105 125.312C203.619 125.837 204.03 126.363 204.338 126.889C205.057 128.361 205.108 130.096 204.492 132.094C203.978 133.986 202.848 137.088 201.102 141.399C200.485 142.766 199.869 144.133 199.253 145.5C198.739 146.867 198.225 148.128 197.712 149.285C197.609 149.706 197.506 150.074 197.404 150.389C197.404 150.599 197.352 150.81 197.249 151.02C199.201 150.704 201.256 149.863 203.413 148.496C205.673 147.024 207.83 145.395 209.885 143.607C212.042 141.82 213.84 140.295 215.278 139.033C216.306 138.087 217.436 137.666 218.668 137.771C219.901 137.877 220.98 138.402 221.904 139.349C222.726 140.4 223.086 141.557 222.983 142.818C222.983 144.08 222.469 145.184 221.442 146.131C218.257 148.97 214.97 151.651 211.58 154.174C208.293 156.698 204.954 158.59 201.564 159.852C198.277 161.009 194.938 161.167 191.548 160.325C189.904 159.589 188.723 158.538 188.004 157.171C187.388 155.699 187.182 154.069 187.388 152.282C187.696 150.494 188.312 148.286 189.237 145.657C188.107 146.709 186.925 147.708 185.693 148.654C184.563 149.6 183.33 150.652 181.994 151.809C167.818 163.27 156.775 169 148.865 169Z" fill="black"/>
<defs>
<linearGradient id="paint0_linear_8_209" x1="93" y1="4" x2="93" y2="182" gradientUnits="userSpaceOnUse">
<stop stop-color="white"/>
<stop offset="1" stop-color="#8D8D8D"/>
</linearGradient>
<linearGradient id="paint1_linear_8_209" x1="92.5" y1="0" x2="92.5" y2="186" gradientUnits="userSpaceOnUse">
<stop stop-color="#9208C2"/>
<stop offset="1" stop-color="#309CFF"/>
</linearGradient>
<linearGradient id="paint2_linear_8_209" x1="93.5" y1="42" x2="93.5" y2="156" gradientUnits="userSpaceOnUse">
<stop stop-color="#9208C2"/>
<stop offset="1" stop-color="#309CFF"/>
</linearGradient>
<linearGradient id="paint3_linear_8_209" x1="93" y1="76" x2="93.7692" y2="118.308" gradientUnits="userSpaceOnUse">
<stop stop-color="#9208C2"/>
<stop offset="1" stop-color="#FCF2FF"/>
</linearGradient>
</defs>
</svg>
