<svg width="1823" height="336" viewBox="0 0 1823 336" fill="none" xmlns="http://www.w3.org/2000/svg">
<path d="M1778.75 211.018C1783.31 211.018 1785.6 207.976 1785.6 201.893C1785.6 198.598 1784.71 195.049 1782.93 191.247C1781.41 187.445 1778.88 183.896 1775.33 180.601C1772.03 177.306 1767.47 174.518 1761.64 172.236C1756.07 169.955 1749.35 168.815 1741.49 168.815C1733.63 168.815 1726.66 170.082 1720.58 172.617C1714.5 175.151 1709.17 178.573 1704.61 182.882C1700.3 186.938 1696.88 191.627 1694.34 196.95C1692.06 202.02 1690.54 207.216 1689.78 212.539L1778.75 211.018ZM1689.4 234.972C1689.15 235.479 1689.02 236.239 1689.02 237.253C1689.02 238.013 1689.02 238.647 1689.02 239.154C1689.02 245.998 1689.78 252.968 1691.3 260.066C1692.82 267.163 1695.61 273.627 1699.67 279.457C1703.98 285.033 1709.68 289.596 1716.78 293.144C1723.87 296.693 1733 298.467 1744.15 298.467C1751 298.467 1756.83 297.453 1761.64 295.425C1766.71 293.398 1770.89 290.863 1774.19 287.821C1777.74 284.526 1780.53 280.977 1782.55 277.175C1784.83 273.373 1786.61 269.824 1787.88 266.529C1789.4 262.474 1791.55 259.178 1794.34 256.644C1797.13 253.855 1800.68 252.461 1804.99 252.461C1809.8 252.461 1813.6 253.475 1816.39 255.503C1819.18 257.277 1820.58 261.333 1820.58 267.67C1820.58 271.726 1819.43 277.175 1817.15 284.019C1814.87 290.609 1810.69 297.2 1804.61 303.79C1798.78 310.127 1790.79 315.703 1780.65 320.519C1770.51 325.082 1757.59 327.363 1741.87 327.363C1727.93 327.363 1715.51 325.209 1704.61 320.9C1693.71 316.591 1684.46 310.507 1676.85 302.649C1669.25 294.792 1663.42 285.286 1659.36 274.134C1655.56 262.727 1653.66 249.927 1653.66 235.732C1653.66 220.777 1655.69 207.47 1659.74 195.81C1664.05 183.896 1670.14 173.884 1678 165.773C1685.85 157.408 1695.1 151.071 1705.75 146.762C1716.65 142.453 1728.82 140.299 1742.25 140.299C1757.46 140.299 1770.13 142.833 1780.27 147.903C1790.66 152.719 1798.9 158.802 1804.99 166.153C1811.07 173.25 1815.38 180.728 1817.91 188.586C1820.7 196.443 1822.1 203.287 1822.1 209.117C1822.1 214.187 1821.34 218.496 1819.81 222.044C1818.29 225.593 1815.63 228.381 1811.83 230.409C1810.06 231.423 1808.03 232.183 1805.75 232.69C1803.72 233.197 1800.93 233.577 1797.38 233.831C1794.09 234.084 1789.9 234.338 1784.84 234.591C1780.02 234.591 1774.19 234.591 1767.35 234.591C1766.33 234.591 1763.8 234.591 1759.74 234.591C1755.69 234.591 1750.87 234.591 1745.29 234.591C1739.72 234.591 1733.76 234.718 1727.42 234.972C1721.09 234.972 1715.13 234.972 1709.55 234.972C1704.23 234.972 1699.67 234.972 1695.87 234.972C1692.06 234.972 1689.91 234.972 1689.4 234.972Z" fill="white"/>
<path d="M1608.75 199.232C1608.75 203.541 1608.24 207.976 1607.23 212.539C1606.21 217.102 1604.57 221.284 1602.29 225.086C1600 228.635 1596.96 231.676 1593.16 234.211C1589.36 236.492 1584.67 237.633 1579.09 237.633C1574.02 237.633 1569.33 236.492 1565.02 234.211C1560.72 231.676 1558.56 227.494 1558.56 221.664C1558.56 217.608 1559.57 214.567 1561.6 212.539C1563.63 210.511 1565.91 208.737 1568.45 207.216C1570.98 205.695 1573.26 204.048 1575.29 202.273C1577.32 200.499 1578.33 197.964 1578.33 194.669C1578.33 190.36 1576.68 187.065 1573.39 184.783C1570.09 182.502 1566.04 181.362 1561.22 181.362C1556.66 181.362 1551.46 182.756 1545.63 185.544C1540.06 188.079 1534.73 192.134 1529.66 197.711C1524.85 203.287 1520.79 210.258 1517.5 218.622C1514.2 226.734 1512.55 236.492 1512.55 247.899V292.003H1530.81C1543.99 292.003 1553.24 293.398 1558.56 296.186C1563.88 298.721 1566.55 302.903 1566.55 308.733C1566.55 317.604 1561.86 322.04 1552.48 322.04C1544.37 322.04 1536.25 321.914 1528.14 321.66C1520.29 321.153 1512.56 320.9 1504.95 320.9C1500.9 320.9 1497.35 321.026 1494.3 321.28C1491.26 321.28 1488.35 321.407 1485.56 321.66C1482.77 321.66 1479.86 321.787 1476.82 322.04C1474.03 322.04 1470.73 322.04 1466.93 322.04C1460.85 322.04 1456.66 320.393 1454.38 317.098C1452.35 313.549 1451.34 309.873 1451.34 306.071C1451.34 302.776 1452.1 299.861 1453.62 297.326C1455.14 294.792 1458.06 293.017 1462.37 292.003C1466.42 290.99 1469.97 289.722 1473.01 288.201C1476.31 286.427 1478.08 282.752 1478.34 277.175C1478.34 274.133 1478.34 270.585 1478.34 266.529C1478.59 262.474 1478.72 257.024 1478.72 250.18C1478.72 243.336 1478.72 234.591 1478.72 223.945C1478.72 213.299 1478.72 199.738 1478.72 183.263C1478.72 179.714 1476.82 177.94 1473.01 177.94H1461.61C1459.58 177.94 1457.3 177.813 1454.76 177.559C1452.23 177.052 1449.95 176.419 1447.92 175.658C1445.89 174.644 1444.24 173.377 1442.98 171.856C1441.46 170.082 1440.69 167.927 1440.69 165.393C1440.69 160.07 1444.88 156.267 1453.24 153.986C1461.86 151.705 1476.69 150.564 1497.73 150.564C1504.32 150.564 1508.75 151.325 1511.03 152.846C1513.32 154.366 1514.46 158.422 1514.46 165.012V183.643C1520.29 175.025 1527 168.181 1534.61 163.111C1542.47 157.788 1551.46 155.127 1561.6 155.127C1566.42 155.127 1571.61 155.887 1577.19 157.408C1582.77 158.929 1587.84 161.464 1592.4 165.012C1597.22 168.308 1601.14 172.743 1604.19 178.32C1607.23 183.896 1608.75 190.867 1608.75 199.232Z" fill="white"/>
<path d="M1189.39 237.633C1189.39 245.744 1187.23 254.996 1182.93 265.389C1178.87 275.528 1172.28 285.286 1163.15 294.665C1154.28 303.79 1142.62 311.521 1128.17 317.858C1113.73 324.195 1096.24 327.363 1075.71 327.363C1062.02 327.363 1048.46 324.448 1035.02 318.618C1021.59 312.535 1009.55 303.156 998.902 290.483C988.256 277.555 979.638 261.08 973.048 241.055C966.711 220.777 963.543 196.443 963.543 168.054C963.543 144.988 966.584 123.443 972.668 103.418C979.005 83.3934 987.496 66.0304 998.142 51.3288C1008.79 36.3738 1021.21 24.7139 1035.4 16.3492C1049.6 7.73105 1064.68 3.42197 1080.65 3.42197C1091.04 3.42197 1100.42 5.06956 1108.78 8.36474C1117.15 11.4064 1124.37 15.4621 1130.46 20.5316C1136.54 25.3476 1141.48 30.6706 1145.28 36.5005C1149.34 42.3304 1152.38 47.9069 1154.41 53.2299C1153.65 40.0491 1153.14 31.431 1152.89 27.3754C1152.89 23.3198 1152.89 21.0385 1152.89 20.5316C1152.89 16.9829 1153.78 13.8145 1155.55 11.0262C1157.32 8.238 1161.25 6.84388 1167.34 6.84388C1171.39 6.84388 1174.56 7.47757 1176.84 8.74495C1179.38 10.0123 1181.15 11.5332 1182.17 13.3075C1183.18 15.0818 1183.81 16.8562 1184.07 18.6305C1184.32 20.4048 1184.45 21.7989 1184.45 22.8128C1184.45 31.6845 1184.19 41.3165 1183.69 51.709C1183.18 62.1015 1182.93 71.8603 1182.93 80.9854C1182.93 89.0966 1183.05 96.8276 1183.31 104.178C1183.56 111.276 1183.69 118.88 1183.69 126.991C1183.69 133.075 1182.55 137.637 1180.26 140.679C1177.98 143.721 1173.67 145.241 1167.34 145.241C1161.25 145.241 1156.69 143.974 1153.65 141.439C1150.86 138.651 1149.34 132.441 1149.09 122.809C1148.83 111.909 1147.44 101.137 1144.9 90.4907C1142.37 79.5913 1138.31 69.9592 1132.74 61.5945C1127.41 53.2299 1120.44 46.5128 1111.83 41.4433C1103.46 36.1203 1093.2 33.4588 1081.03 33.4588C1069.12 33.4588 1058.22 37.2609 1048.33 44.8652C1038.44 52.216 1029.83 62.2282 1022.48 74.902C1015.38 87.3223 1009.8 101.644 1005.75 117.866C1001.94 134.088 1000.04 150.945 1000.04 168.434C1000.04 185.924 1001.69 202.527 1004.99 218.242C1008.28 233.704 1013.1 247.265 1019.43 258.925C1026.02 270.585 1034.26 279.837 1044.15 286.681C1054.03 293.524 1065.57 296.946 1078.75 296.946C1089.65 296.946 1099.28 296.059 1107.64 294.285C1116.01 292.257 1123.36 289.215 1129.7 285.16C1136.29 280.851 1141.86 275.274 1146.43 268.43C1150.99 261.587 1154.92 253.222 1158.21 243.336C1160.49 236.239 1162.77 231.55 1165.06 229.268C1167.34 226.987 1170.89 225.847 1175.7 225.847C1184.83 225.847 1189.39 229.775 1189.39 237.633Z" fill="white"/>
<path d="M889.339 304.17H909.87C912.405 304.17 915.067 304.424 917.855 304.931C920.897 305.184 923.558 305.818 925.839 306.832C928.121 307.846 930.022 309.367 931.542 311.394C933.063 313.422 933.824 315.957 933.824 318.999C933.824 324.068 931.923 327.617 928.121 329.645C924.318 331.926 919.756 333.067 914.433 333.067C913.673 333.067 911.518 333.067 907.969 333.067C904.674 333.067 900.618 333.067 895.802 333.067C891.24 333.32 886.297 333.447 880.974 333.447C875.651 333.447 870.708 333.447 866.146 333.447C861.583 333.7 857.528 333.827 853.979 333.827C850.684 333.827 848.783 333.827 848.276 333.827C844.981 333.827 841.685 332.686 838.39 330.405C835.095 328.124 833.448 324.448 833.448 319.379C833.448 315.07 834.461 311.901 836.489 309.874C838.771 307.592 841.685 306.071 845.234 305.311C848.783 304.551 851.064 302.903 852.078 300.368C853.092 297.833 853.726 294.158 853.979 289.342C854.233 285.793 854.359 282.498 854.359 279.457C854.613 276.415 854.739 272.486 854.739 267.67C854.739 254.743 854.233 242.829 853.219 231.93C852.458 221.03 850.811 211.652 848.276 203.794C845.741 195.936 842.192 189.853 837.63 185.544C833.067 180.981 827.237 178.7 820.14 178.7C814.564 178.7 809.367 179.841 804.551 182.122C799.989 184.403 795.933 187.318 792.385 190.867C788.836 194.416 785.794 198.344 783.259 202.654C780.725 206.709 778.697 210.638 777.176 214.44C776.923 214.947 776.289 216.468 775.275 219.003C774.515 221.537 773.627 224.579 772.613 228.128C771.853 231.676 771.093 235.605 770.332 239.914C769.572 243.97 769.192 247.772 769.192 251.321V287.061H794.666C799.228 287.061 803.031 287.948 806.072 289.722C809.367 291.243 811.015 295.299 811.015 301.889C811.015 306.198 809.621 309.747 806.833 312.535C804.298 315.07 800.242 316.337 794.666 316.337C793.905 316.337 791.878 316.337 788.582 316.337C785.287 316.337 781.105 316.337 776.035 316.337C771.219 316.337 766.023 316.464 760.447 316.717C754.87 316.717 749.547 316.717 744.478 316.717C739.662 316.717 735.479 316.717 731.931 316.717C728.382 316.717 726.101 316.717 725.087 316.717C723.059 316.717 720.905 316.591 718.623 316.337C716.342 316.084 714.187 315.577 712.16 314.816C710.385 313.802 708.738 312.408 707.217 310.634C705.95 308.606 705.316 305.945 705.316 302.65C705.316 299.608 705.823 297.2 706.837 295.425C707.851 293.398 709.118 291.877 710.639 290.863C712.16 289.849 713.68 289.215 715.201 288.962C716.722 288.455 717.99 288.201 719.003 288.201H723.186C725.721 288.201 727.748 287.314 729.269 285.54C730.79 283.512 731.804 281.358 732.311 279.076C733.071 276.542 733.452 274.134 733.452 271.852C733.705 269.571 733.832 268.177 733.832 267.67C733.832 266.91 733.958 262.981 734.212 255.883C734.465 248.533 734.592 240.548 734.592 231.93C734.846 223.058 735.099 214.82 735.353 207.216C735.606 199.358 735.733 194.542 735.733 192.768C735.733 182.629 733.452 177.559 728.889 177.559H713.681C704.809 177.559 697.965 176.799 693.149 175.278C688.586 173.504 686.305 170.335 686.305 165.773C686.305 163.238 686.939 161.084 688.206 159.309C689.474 157.281 692.262 155.634 696.571 154.366C701.133 153.099 707.724 152.212 716.342 151.705C724.96 150.945 736.62 150.564 751.322 150.564C759.179 150.564 764.122 151.452 766.15 153.226C768.431 154.747 769.699 158.422 769.952 164.252L771.093 186.304C773.627 180.221 777.049 174.898 781.358 170.335C785.921 165.773 790.864 161.971 796.187 158.929C801.763 155.634 807.593 153.226 813.677 151.705C820.013 149.931 826.224 149.044 832.307 149.044C837.376 149.044 843.206 149.931 849.797 151.705C856.387 153.479 862.597 157.028 868.427 162.351C874.257 167.674 879.2 175.151 883.255 184.784C887.311 194.416 889.339 207.216 889.339 223.185V304.17Z" fill="white"/>
<path d="M617.436 15.9689C617.436 11.4064 619.084 7.60427 622.379 4.56256C625.927 1.52085 630.237 0 635.306 0C641.136 0 645.825 1.90107 649.374 5.70321C653.176 9.50534 655.077 14.5748 655.077 20.9117C655.077 23.9534 654.443 28.6427 653.176 34.9796C651.909 41.3165 650.134 47.7801 647.853 54.3704C645.572 60.7073 642.784 66.4105 639.488 71.48C636.193 76.2961 632.518 78.7041 628.462 78.7041C627.195 78.7041 625.42 78.0704 623.139 76.803C621.111 75.2822 620.098 73.6346 620.098 71.8602C620.098 70.5929 620.604 68.4383 621.618 65.3966C622.632 62.3549 623.646 59.1865 624.66 55.8913C625.927 52.3426 627.068 48.9207 628.082 45.6255C629.096 42.3304 629.603 39.6689 629.603 37.6411C629.603 35.8668 628.969 34.3459 627.702 33.0785C626.434 31.5577 625.04 30.0368 623.519 28.516C621.999 26.9951 620.604 25.3475 619.337 23.5732C618.07 21.5454 617.436 19.0106 617.436 15.9689Z" fill="white"/>
<path d="M480.708 172.997C475.892 172.997 470.442 173.124 464.359 173.377C458.275 173.631 452.952 173.757 448.39 173.757C445.095 173.757 442.053 172.87 439.265 171.096C436.223 169.068 434.702 164.886 434.702 158.549C434.702 153.733 436.35 150.438 439.645 148.663C442.94 146.889 446.489 145.748 450.291 145.241L469.682 142.58C473.484 142.073 476.272 141.186 478.046 139.919C480.074 138.398 481.215 135.736 481.468 131.934C481.975 125.851 482.355 119.64 482.609 113.304C483.116 106.967 484.13 101.771 485.651 97.7149C488.439 89.8572 492.875 85.9283 498.958 85.9283C503.014 85.9283 506.689 86.9422 509.984 88.97C513.533 90.9978 515.307 95.8138 515.307 103.418V141.82C516.828 141.82 519.616 141.82 523.672 141.82C527.981 141.566 532.544 141.313 537.36 141.059C542.176 140.806 546.611 140.679 550.667 140.679C554.976 140.425 557.764 140.299 559.032 140.299C562.073 140.299 565.495 141.439 569.297 143.721C573.353 146.002 575.381 149.804 575.381 155.127C575.381 159.943 573.86 163.492 570.818 165.773C567.777 167.801 564.988 168.941 562.454 169.195C554.596 169.702 546.611 170.209 538.5 170.716C530.389 171.223 522.658 171.73 515.307 172.237V264.248C515.307 276.922 516.575 285.54 519.109 290.103C521.644 294.412 525.7 296.566 531.276 296.566C536.853 296.566 540.782 295.172 543.063 292.384C545.344 289.596 547.499 284.146 549.526 276.035C550.54 271.726 552.188 268.811 554.469 267.29C556.751 265.769 560.046 265.009 564.355 265.009C568.917 265.009 572.086 266.276 573.86 268.811C575.888 271.092 576.902 274.387 576.902 278.696C576.902 285.287 575.761 291.497 573.48 297.327C571.452 302.903 568.157 307.846 563.594 312.155C559.285 316.464 553.836 319.886 547.245 322.421C540.908 324.955 533.431 326.223 524.813 326.223C508.844 326.223 497.437 321.027 490.593 310.634C488.059 306.832 486.031 302.65 484.51 298.087C483.243 293.525 482.229 288.962 481.468 284.399C480.708 279.837 480.201 275.401 479.947 271.092C479.947 266.783 479.947 262.854 479.947 259.305L480.708 172.997Z" fill="white"/>
<path d="M378.939 293.144H399.09C404.666 293.144 409.102 294.158 412.397 296.186C415.693 298.214 417.34 302.142 417.34 307.972C417.34 312.028 416.199 315.45 413.918 318.238C411.89 320.773 409.229 322.04 405.934 322.04H334.073C331.032 322.04 327.863 321.914 324.568 321.66C321.526 321.407 318.738 320.9 316.203 320.139C313.922 319.125 311.894 317.731 310.12 315.957C308.599 314.183 307.839 311.648 307.839 308.353C307.839 303.537 309.74 300.115 313.542 298.087C317.344 295.806 322.54 294.411 329.131 293.904C333.186 293.398 336.608 292.637 339.396 291.623C342.438 290.609 344.086 288.708 344.339 285.92C344.593 283.132 344.719 279.583 344.719 275.274C344.973 270.965 345.1 266.656 345.1 262.347C345.353 257.784 345.48 253.602 345.48 249.8C345.733 245.998 345.86 243.083 345.86 241.055C345.86 232.437 345.733 224.959 345.48 218.622C345.226 212.032 344.846 204.554 344.339 196.19C344.086 192.641 343.452 189.726 342.438 187.445C341.678 184.91 339.903 183.643 337.115 183.643C336.355 183.643 334.707 183.77 332.172 184.023C329.638 184.023 326.976 184.023 324.188 184.023C321.4 184.023 318.738 184.15 316.203 184.403C313.669 184.403 312.021 184.403 311.261 184.403C306.952 184.403 303.91 183.263 302.136 180.981C300.361 178.447 299.474 175.405 299.474 171.856C299.474 166.787 301.629 163.365 305.938 161.59C310.5 159.816 318.485 158.549 329.891 157.788C337.242 157.281 344.466 156.901 351.563 156.648C358.661 156.394 364.364 156.267 368.673 156.267C372.475 156.267 375.136 157.535 376.657 160.07C378.178 162.351 378.939 165.519 378.939 169.575V293.144ZM333.693 101.517C333.693 99.2355 334.2 96.574 335.214 93.5323C336.228 90.4906 337.749 87.5757 339.777 84.7874C341.805 81.9992 344.466 79.7179 347.761 77.9436C351.056 75.9158 354.985 74.9019 359.548 74.9019C365.885 74.9019 371.334 77.1832 375.897 81.7457C380.459 86.0548 382.741 92.1382 382.741 99.9959C382.741 105.319 381.854 109.755 380.079 113.303C378.558 116.852 376.404 119.767 373.616 122.048C371.081 124.33 368.293 125.977 365.251 126.991C362.209 128.005 359.421 128.512 356.886 128.512C350.296 128.512 344.719 125.977 340.157 120.908C335.848 115.585 333.693 109.121 333.693 101.517Z" fill="white"/>
<path d="M68.4383 155.127C73.2543 150.564 78.9575 144.988 85.5479 138.397C92.1382 131.554 98.9821 124.33 106.079 116.725C113.177 109.121 120.274 101.517 127.371 93.9125C134.469 86.3082 140.805 79.3377 146.382 73.0008C151.958 66.4104 156.394 60.9607 159.689 56.6516C163.238 52.0891 165.012 49.3008 165.012 48.2869C165.012 45.7522 164.379 44.2313 163.111 43.7244C162.097 42.964 159.816 42.457 156.267 42.2035C153.733 41.9501 150.945 41.0629 147.903 39.542C145.115 38.0212 143.72 35.3597 143.72 31.5576C143.72 28.2624 144.608 25.3474 146.382 22.8127C148.156 20.2779 151.578 19.0105 156.648 19.0105H249.039C251.321 19.0105 253.602 20.0244 255.883 22.0523C258.165 23.8266 259.305 26.6148 259.305 30.4169C259.305 34.2191 257.911 37.0073 255.123 38.7816C252.588 40.5559 250.053 41.4431 247.519 41.4431C236.873 41.9501 228.128 42.8372 221.284 44.1046C214.694 45.1185 209.497 47.3998 205.695 50.9484C187.698 68.1847 169.448 87.0687 150.945 107.6C132.694 128.132 113.43 149.55 93.1521 171.856C106.333 189.346 119.26 206.202 131.934 222.424C137.257 229.268 142.833 236.492 148.663 244.097C154.747 251.447 160.577 258.671 166.153 265.769C171.983 272.866 177.559 279.71 182.882 286.3C188.459 292.637 193.528 298.34 198.091 303.41C200.119 305.438 205.315 306.705 213.68 307.212C222.298 307.719 231.93 307.972 242.576 307.972C250.687 307.972 257.404 308.986 262.727 311.014C268.05 312.788 270.712 316.337 270.712 321.66C270.712 324.448 270.205 326.73 269.191 328.504C268.43 330.278 265.389 331.672 260.066 332.686C254.996 333.954 246.885 334.714 235.732 334.967C224.579 335.474 208.864 335.728 188.586 335.728C186.304 335.728 182.756 333.32 177.94 328.504C173.124 323.688 167.42 317.351 160.83 309.493C154.24 301.635 147.016 292.637 139.158 282.498C131.554 272.359 123.696 261.967 115.585 251.321C107.727 240.675 99.8692 230.155 92.0115 219.763C84.4073 209.37 77.3099 199.992 70.7196 191.627L68.4383 194.669V298.467H96.5741C101.39 298.467 105.192 299.227 107.98 300.748C110.769 302.016 112.163 304.677 112.163 308.733C112.163 313.549 111.022 316.971 108.741 318.999C106.46 321.026 104.052 322.04 101.517 322.04H22.4326C13.5609 322.04 7.60426 321.153 4.56255 319.379C1.52085 317.604 0 314.309 0 309.493C0 305.184 1.64759 302.142 4.94277 300.368C8.23794 298.34 12.4203 297.073 17.4898 296.566C22.0523 296.059 25.601 294.538 28.1358 292.003C30.6705 289.215 31.9379 284.146 31.9379 276.795C31.9379 267.416 31.9379 258.418 31.9379 249.8C32.1914 241.182 32.4448 232.69 32.6983 224.326C32.9518 215.707 33.0785 206.962 33.0785 198.091C33.332 188.966 33.4587 179.46 33.4587 169.575C33.4587 149.297 33.2053 128.512 32.6983 107.22C32.1914 85.928 31.9379 65.143 31.9379 44.865C31.9379 41.5698 30.5438 39.1618 27.7555 37.641C24.9673 35.8666 21.4187 34.8527 17.1096 34.5993C10.7727 34.0923 6.33688 32.9517 3.80213 31.1774C1.52085 29.1496 0.380212 25.9811 0.380212 21.672C0.380212 16.6025 2.0278 13.4341 5.32298 12.1667C8.87163 10.6459 12.8005 9.88544 17.1096 9.88544H90.1104C98.2217 9.88544 103.545 10.5191 106.079 11.7865C108.868 13.0539 110.262 15.8421 110.262 20.1512C110.262 24.9672 108.487 28.3891 104.939 30.4169C101.644 32.1913 98.4751 33.2052 95.4334 33.4586C93.1522 33.4586 90.3639 33.5854 87.0688 33.8389C84.027 34.0923 81.1121 34.5993 78.3239 35.3597C75.5356 36.1201 73.1276 37.2608 71.0998 38.7816C69.3255 40.049 68.4383 41.8233 68.4383 44.1046V155.127Z" fill="white"/>
<path fill-rule="evenodd" clip-rule="evenodd" d="M1224.64 130.912C1231.36 124.459 1239.9 122 1247.42 122C1252.64 122 1257.83 124.204 1261.72 126.159C1265.92 128.273 1270.28 131.005 1274.14 133.483C1274.99 134.029 1275.81 134.559 1276.61 135.073C1279.61 137.009 1282.23 138.7 1284.57 140.041C1286.02 140.874 1287.09 141.411 1287.83 141.719C1287.92 141.756 1288 141.787 1288.07 141.813C1290.57 141.777 1292.22 141.541 1294.73 141.181C1295.31 141.099 1295.93 141.01 1296.62 140.915C1300.66 140.359 1305.75 139.827 1314.65 139.827C1323.55 139.827 1328.63 140.359 1332.68 140.915C1333.37 141.01 1333.99 141.099 1334.57 141.181C1337.07 141.541 1338.72 141.777 1341.22 141.813C1341.29 141.787 1341.37 141.756 1341.46 141.719C1342.21 141.411 1343.28 140.874 1344.73 140.041C1347.07 138.7 1349.69 137.009 1352.69 135.073C1353.48 134.56 1354.31 134.029 1355.16 133.483C1359.02 131.005 1363.38 128.273 1367.58 126.159C1371.46 124.204 1376.66 122 1381.87 122C1389.39 122 1397.94 124.459 1404.66 130.912C1411.52 137.502 1415.42 147.225 1415.42 159.648L1415.42 183.427C1415.42 187.124 1414.86 194.519 1412.97 200.693C1412.35 202.691 1411.35 205.471 1409.57 208.016C1412.88 215.229 1414.42 222.633 1415.11 229.726C1415.83 237.042 1415.67 244.786 1415.53 251.566C1415.47 254.103 1415.42 256.504 1415.42 258.698C1415.42 288.421 1397.07 307.082 1376.19 317.78C1355.58 328.34 1331.21 332 1314.65 332C1298.08 332 1273.72 328.34 1253.11 317.78C1232.23 307.082 1213.87 288.421 1213.87 258.698C1213.87 256.504 1213.82 254.103 1213.77 251.566C1213.63 244.786 1213.47 237.042 1214.18 229.726C1214.88 222.632 1216.42 215.227 1219.72 208.014C1217.95 205.469 1216.94 202.689 1216.33 200.693C1214.45 194.521 1213.89 187.133 1213.87 183.458L1213.87 183.421L1213.87 159.648C1213.87 147.225 1217.77 137.502 1224.64 130.912ZM1234.13 188.941C1234.64 188.503 1235.15 188.07 1235.68 187.641C1239.92 184.173 1246.17 184.791 1249.65 189.023C1253.12 193.254 1252.5 199.495 1248.26 202.963C1245.59 205.152 1243.46 207.383 1241.73 209.655C1236.88 216.048 1234.76 223.343 1233.95 231.653C1233.35 237.737 1233.47 243.591 1233.61 249.904C1233.67 252.724 1233.73 255.635 1233.73 258.698C1233.73 278.5 1245.35 291.538 1262.18 300.156C1279.27 308.913 1300.33 312.189 1314.65 312.189C1328.97 312.189 1350.03 308.913 1367.12 300.156C1383.94 291.538 1395.57 278.5 1395.57 258.698C1395.57 255.635 1395.63 252.724 1395.69 249.904C1395.82 243.591 1395.94 237.737 1395.35 231.653C1394.53 223.342 1392.42 216.046 1387.56 209.653C1385.83 207.382 1383.71 205.151 1381.03 202.963C1376.79 199.495 1376.17 193.254 1379.65 189.023C1383.12 184.791 1389.38 184.173 1393.62 187.641C1394.15 188.071 1394.66 188.506 1395.16 188.944C1395.44 186.767 1395.56 184.719 1395.57 183.398C1395.57 183.396 1395.57 183.401 1395.57 183.398V159.648C1395.57 151.467 1393.11 147.318 1390.89 145.189C1388.53 142.922 1385.26 141.811 1381.87 141.811C1381.88 141.811 1381.88 141.81 1381.87 141.811C1381.81 141.817 1381.36 141.861 1380.42 142.168C1379.39 142.505 1378.1 143.054 1376.53 143.846C1373.34 145.447 1369.76 147.67 1365.9 150.146C1365.18 150.605 1364.45 151.076 1363.71 151.553C1360.66 153.523 1357.46 155.588 1354.63 157.213C1352.85 158.238 1350.93 159.249 1349.05 160.025C1347.36 160.726 1344.78 161.629 1341.9 161.629C1337.49 161.629 1334.36 161.174 1331.5 160.76C1330.98 160.684 1330.47 160.61 1329.97 160.541C1326.78 160.102 1322.6 159.638 1314.65 159.638C1306.7 159.638 1302.52 160.102 1299.33 160.541C1298.82 160.61 1298.31 160.684 1297.8 160.76C1294.94 161.174 1291.81 161.629 1287.39 161.629C1284.52 161.629 1281.94 160.726 1280.24 160.025C1278.36 159.249 1276.45 158.238 1274.66 157.213C1271.83 155.588 1268.63 153.523 1265.58 151.553C1264.85 151.076 1264.11 150.605 1263.4 150.146C1259.54 147.67 1255.95 145.447 1252.77 143.846C1251.2 143.054 1249.9 142.505 1248.87 142.168C1247.94 141.861 1247.49 141.818 1247.42 141.812C1247.42 141.811 1247.42 141.812 1247.42 141.812C1244.04 141.812 1240.77 142.922 1238.4 145.189C1236.19 147.318 1233.73 151.467 1233.73 159.648V183.402C1233.73 184.726 1233.86 186.77 1234.13 188.941Z" fill="white"/>
<path fill-rule="evenodd" clip-rule="evenodd" d="M1281.27 240.75C1281.2 240.748 1281.13 240.747 1281.06 240.747C1280.99 240.747 1280.92 240.748 1280.85 240.75C1280.85 240.75 1280.85 240.75 1280.85 240.75M1280.85 240.75C1280.92 240.752 1280.99 240.753 1281.06 240.753C1281.13 240.753 1281.2 240.752 1281.27 240.75C1281.27 240.75 1281.27 240.75 1281.27 240.75M1268.51 228.968C1270.28 225.789 1274.31 221 1281.06 221C1287.83 221 1291.85 225.824 1293.61 228.984C1295.56 232.491 1296.47 236.671 1296.47 240.75C1296.47 244.832 1295.57 249.014 1293.61 252.524C1291.84 255.693 1287.82 260.5 1281.06 260.5C1274.3 260.5 1270.27 255.693 1268.51 252.524C1266.55 249.014 1265.65 244.832 1265.65 240.75C1265.65 236.665 1266.55 232.48 1268.51 228.968ZM1349.24 240.753C1349.31 240.753 1349.38 240.752 1349.45 240.75C1349.38 240.748 1349.31 240.747 1349.24 240.747C1349.17 240.747 1349.1 240.748 1349.03 240.75C1349.1 240.752 1349.17 240.753 1349.24 240.753ZM1336.69 228.968C1338.46 225.789 1342.49 221 1349.24 221C1356.01 221 1360.03 225.824 1361.79 228.984C1363.74 232.491 1364.65 236.671 1364.65 240.75C1364.65 244.832 1363.75 249.014 1361.79 252.524C1360.02 255.693 1356 260.5 1349.24 260.5C1342.48 260.5 1338.45 255.693 1336.69 252.524C1334.73 249.014 1333.83 244.832 1333.83 240.75C1333.83 236.665 1334.73 232.48 1336.69 228.968ZM1315.19 274.552C1315.61 273.658 1315.93 272.525 1315.93 271.167C1315.93 269.808 1315.61 268.676 1315.19 267.784C1315.19 267.788 1315.18 267.792 1315.18 267.796C1314.76 268.686 1314.44 269.814 1314.44 271.167C1314.44 272.521 1314.76 273.65 1315.18 274.542C1315.18 274.545 1315.19 274.548 1315.19 274.552ZM1304.78 259.306C1307.95 257.942 1311.64 257.346 1315.18 257.346C1318.74 257.346 1322.43 257.948 1325.6 259.312C1327.17 259.987 1329.06 261.045 1330.71 262.721C1332.4 264.439 1334.26 267.306 1334.26 271.167C1334.26 275.013 1332.42 277.878 1330.72 279.607C1329.08 281.289 1327.18 282.351 1325.6 283.029C1322.43 284.398 1318.74 285 1315.18 285C1311.63 285 1307.94 284.398 1304.77 283.027C1303.2 282.349 1301.3 281.287 1299.65 279.605C1297.96 277.877 1296.11 275.012 1296.11 271.167C1296.11 267.317 1297.96 264.45 1299.66 262.721C1301.31 261.039 1303.21 259.98 1304.78 259.306Z" fill="white"/>
<path fill-rule="evenodd" clip-rule="evenodd" d="M1222.95 265.464C1215.16 268.419 1208.94 271.483 1207.35 272.623C1202.92 275.806 1196.73 274.812 1193.52 270.402C1190.32 265.992 1191.32 259.837 1195.76 256.653C1199.67 253.848 1208.1 250.017 1215.88 247.063C1219.98 245.508 1224.3 244.043 1228.3 242.951C1232.09 241.918 1236.35 241 1240.03 241C1245.5 241 1249.94 245.409 1249.94 250.848C1249.94 256.287 1245.5 260.696 1240.03 260.696C1239.12 260.696 1236.97 261.008 1233.55 261.944C1230.33 262.822 1226.64 264.064 1222.95 265.464ZM1380.36 250.848C1380.36 245.409 1384.8 241 1390.27 241C1393.94 241 1398.21 241.918 1402 242.951C1406 244.043 1410.32 245.508 1414.42 247.063C1422.2 250.015 1430.64 253.848 1434.55 256.659C1438.98 259.847 1439.97 266.003 1436.77 270.41C1433.56 274.817 1427.37 275.805 1422.93 272.617C1421.36 271.483 1415.14 268.42 1407.35 265.464C1403.66 264.064 1399.97 262.822 1396.75 261.944C1393.32 261.009 1391.17 260.696 1390.27 260.696C1384.8 260.696 1380.36 256.287 1380.36 250.848ZM1227.15 303.071C1226.63 303.446 1226.14 303.802 1225.68 304.136C1221.24 307.32 1215.05 306.325 1211.85 301.915C1208.64 297.506 1209.64 291.35 1214.08 288.167C1214.44 287.906 1214.86 287.604 1215.32 287.269C1218.07 285.271 1222.47 282.076 1227.21 279.294C1232.38 276.267 1239.89 272.513 1247.37 272.513C1252.84 272.513 1257.27 276.922 1257.27 282.361C1257.27 287.8 1252.84 292.209 1247.37 292.209C1245.67 292.209 1242.19 293.378 1237.28 296.259C1233.45 298.503 1229.94 301.047 1227.15 303.071ZM1373.02 282.361C1373.02 276.922 1377.46 272.513 1382.93 272.513C1390.4 272.513 1397.92 276.267 1403.08 279.294C1407.83 282.076 1412.23 285.272 1414.98 287.269C1415.44 287.604 1415.85 287.906 1416.22 288.167C1420.65 291.35 1421.65 297.506 1418.45 301.915C1415.25 306.325 1409.06 307.32 1404.62 304.136C1404.15 303.802 1403.66 303.446 1403.15 303.071C1400.35 301.047 1396.84 298.503 1393.02 296.259C1388.1 293.378 1384.62 292.209 1382.93 292.209C1377.46 292.209 1373.02 287.8 1373.02 282.361Z" fill="white"/>
</svg>
