<svg width="280" height="172" viewBox="0 0 280 172" fill="none" xmlns="http://www.w3.org/2000/svg">
<path d="M264.456 28.1179C265.717 28.7083 267.219 28.164 267.809 26.9023C268.4 25.6406 267.855 24.1392 266.594 23.5488C265.332 22.9585 263.831 23.5027 263.24 24.7644C262.65 26.0261 263.194 27.5275 264.456 28.1179Z" stroke="#D9BFB0" stroke-width="2" stroke-linecap="round" stroke-linejoin="round"/>
<path d="M270.314 36.4283C271.575 37.0187 273.077 36.4745 273.667 35.2128C274.258 33.951 273.713 32.4496 272.452 31.8593C271.19 31.2689 269.688 31.8131 269.098 33.0748C268.508 34.3365 269.052 35.838 270.314 36.4283Z" stroke="#D9BFB0" stroke-width="2" stroke-linecap="round" stroke-linejoin="round"/>
<path d="M268.322 46.6354C269.584 47.2258 271.086 46.6816 271.676 45.4199C272.266 44.1581 271.722 42.6567 270.46 42.0664C269.199 41.476 267.697 42.0202 267.107 43.2819C266.516 44.5437 267.061 46.0451 268.322 46.6354Z" stroke="#D9BFB0" stroke-width="2" stroke-linecap="round" stroke-linejoin="round"/>
<path d="M260.033 31.618C260.783 31.969 261.457 32.4642 262.015 33.0754C262.574 33.6867 263.007 34.402 263.289 35.1805C263.571 35.959 263.697 36.7855 263.66 37.6127C263.623 38.4399 263.423 39.2517 263.072 40.0017L261.202 43.9997C260.754 44.955 259.979 45.7185 259.018 46.1519C258.056 46.5853 256.971 46.6599 255.959 46.3623C254.947 46.0647 254.075 45.4144 253.501 44.5293C252.927 43.6443 252.689 42.5829 252.83 41.5375C253.078 39.7369 252.532 38.226 251.192 37.0046C250.414 36.2927 249.917 35.326 249.79 34.2793C249.663 33.2326 249.915 32.1751 250.5 31.2981C251.086 30.4212 251.966 29.7827 252.981 29.4983C253.996 29.2138 255.08 29.3022 256.035 29.7473L260.033 31.618Z" stroke="#D9BFB0" stroke-width="2" stroke-linecap="round" stroke-linejoin="round"/>
<path d="M14.7281 140.067C13.5757 139.285 12.0071 139.584 11.2245 140.737C10.442 141.889 10.7417 143.458 11.8941 144.24C13.0465 145.023 14.6152 144.723 15.3977 143.571C16.1803 142.418 15.8805 140.85 14.7281 140.067Z" stroke="#72625A" stroke-width="2" stroke-linecap="round" stroke-linejoin="round"/>
<path d="M10.259 130.935C9.10662 130.152 7.53801 130.452 6.75543 131.604C5.97284 132.757 6.27263 134.325 7.42503 135.108C8.57743 135.89 10.146 135.591 10.9286 134.438C11.7112 133.286 11.4114 131.717 10.259 130.935Z" stroke="#72625A" stroke-width="2" stroke-linecap="round" stroke-linejoin="round"/>
<path d="M13.8404 121.171C12.688 120.389 11.1194 120.688 10.3368 121.841C9.55423 122.993 9.85402 124.562 11.0064 125.344C12.1588 126.127 13.7274 125.827 14.51 124.675C15.2926 123.522 14.9928 121.954 13.8404 121.171Z" stroke="#72625A" stroke-width="2" stroke-linecap="round" stroke-linejoin="round"/>
<path d="M19.6487 137.311C18.9637 136.846 18.377 136.25 17.9221 135.558C17.4673 134.866 17.1531 134.092 16.9977 133.278C16.8423 132.465 16.8485 131.629 17.0162 130.818C17.1838 130.007 17.5095 129.237 17.9747 128.552L20.4545 124.9C21.0474 124.028 21.9332 123.397 22.9514 123.121C23.9696 122.845 25.0529 122.943 26.005 123.397C26.9572 123.851 27.7153 124.631 28.142 125.596C28.5687 126.561 28.6357 127.646 28.331 128.656C27.8008 130.395 28.1009 131.973 29.2314 133.391C29.8868 134.217 30.2248 135.251 30.1843 136.304C30.1439 137.358 29.7277 138.362 29.011 139.135C28.2942 139.909 27.3244 140.4 26.2769 140.52C25.2295 140.64 24.1736 140.382 23.3003 139.791L19.6487 137.311Z" stroke="#72625A" stroke-width="2" stroke-linecap="round" stroke-linejoin="round"/>
<path d="M232.873 7.27901C234.073 7.00245 234.821 5.80571 234.545 4.60602C234.268 3.40632 233.071 2.65797 231.872 2.93452C230.672 3.21108 229.924 4.40782 230.2 5.60751C230.477 6.80721 231.674 7.55556 232.873 7.27901Z" stroke="#D9BFB0" stroke-width="2" stroke-linecap="round" stroke-linejoin="round"/>
<path d="M241.478 9.87086C242.677 9.59431 243.426 8.39757 243.149 7.19788C242.873 5.99818 241.676 5.24983 240.476 5.52638C239.276 5.80294 238.528 6.99968 238.805 8.19937C239.081 9.39907 240.278 10.1474 241.478 9.87086Z" stroke="#D9BFB0" stroke-width="2" stroke-linecap="round" stroke-linejoin="round"/>
<path d="M245.653 18.0591C246.853 17.7825 247.601 16.5858 247.324 15.3861C247.048 14.1864 245.851 13.4381 244.651 13.7146C243.452 13.9912 242.703 15.1879 242.98 16.3876C243.256 17.5873 244.453 18.3357 245.653 18.0591Z" stroke="#D9BFB0" stroke-width="2" stroke-linecap="round" stroke-linejoin="round"/>
<path d="M231.702 12.1242C232.416 11.9598 233.154 11.9375 233.876 12.0586C234.598 12.1796 235.289 12.4416 235.909 12.8296C236.53 13.2177 237.068 13.7241 237.492 14.3201C237.917 14.916 238.221 15.5898 238.385 16.303L239.261 20.1044C239.47 21.013 239.347 21.9664 238.914 22.792C238.481 23.6176 237.766 24.2607 236.9 24.605C236.033 24.9492 235.072 24.9717 234.191 24.6685C233.309 24.3653 232.565 23.7563 232.094 22.952C231.286 21.5636 230.082 20.8096 228.484 20.69C227.555 20.6184 226.682 20.2165 226.024 19.5572C225.365 18.8978 224.964 18.0245 224.894 17.0954C224.824 16.1662 225.088 15.2425 225.64 14.4914C226.191 13.7403 226.993 13.2115 227.901 13.0006L231.702 12.1242Z" stroke="#D9BFB0" stroke-width="2" stroke-linecap="round" stroke-linejoin="round"/>
<path d="M42.6152 165.641C41.3869 165.724 40.4586 166.788 40.5418 168.016C40.6251 169.244 41.6883 170.173 42.9166 170.089C44.145 170.006 45.0733 168.943 44.99 167.715C44.9068 166.486 43.8436 165.558 42.6152 165.641Z" stroke="#72625A" stroke-width="2" stroke-linecap="round" stroke-linejoin="round"/>
<path d="M34.5294 161.72C33.3011 161.804 32.3728 162.867 32.456 164.095C32.5392 165.324 33.6025 166.252 34.8308 166.169C36.0592 166.085 36.9875 165.022 36.9042 163.794C36.821 162.565 35.7578 161.637 34.5294 161.72Z" stroke="#72625A" stroke-width="2" stroke-linecap="round" stroke-linejoin="round"/>
<path d="M31.7024 152.975C30.4741 153.058 29.5458 154.121 29.629 155.349C29.7122 156.578 30.7755 157.506 32.0038 157.423C33.2322 157.34 34.1605 156.276 34.0772 155.048C33.994 153.82 32.9308 152.891 31.7024 152.975Z" stroke="#72625A" stroke-width="2" stroke-linecap="round" stroke-linejoin="round"/>
<path d="M44.5379 161.042C43.8077 161.092 43.0749 160.997 42.3814 160.763C41.6879 160.529 41.0471 160.161 40.4958 159.68C39.9445 159.199 39.4934 158.614 39.1683 157.958C38.8432 157.302 38.6503 156.589 38.6009 155.859L38.3371 151.967C38.2744 151.036 38.5469 150.114 39.1052 149.368C39.6636 148.621 40.4709 148.099 41.3809 147.896C42.2909 147.694 43.2434 147.823 44.066 148.262C44.8885 148.701 45.5267 149.42 45.8648 150.289C46.4431 151.788 47.5118 152.723 49.0712 153.094C49.9773 153.311 50.7754 153.846 51.3213 154.602C51.8672 155.357 52.1246 156.282 52.0472 157.211C51.9697 158.14 51.5624 159.01 50.8989 159.664C50.2355 160.319 49.3597 160.714 48.4301 160.779L44.5379 161.042Z" stroke="#72625A" stroke-width="2" stroke-linecap="round" stroke-linejoin="round"/>
<path d="M143.994 32.548C144.166 33.199 144.126 33.8269 143.874 34.4315C143.644 34.9986 143.484 35.5946 143.396 36.2193C142.887 36.4487 142.456 36.7363 142.104 37.0824C141.774 37.391 141.437 37.7332 141.093 38.1088C140.771 38.4471 140.396 38.7674 139.97 39.0699C139.543 39.3724 139.019 39.6056 138.398 39.7696C137.806 39.9257 137.213 40.0188 136.619 40.0487C136.056 40.0709 135.492 40.1561 134.93 40.3045C134.19 40.4996 133.519 40.835 132.917 41.3105C132.344 41.7782 131.672 42.1135 130.903 42.3165C130.163 42.5117 129.389 42.6368 128.58 42.6918C127.802 42.739 127.057 42.8563 126.347 43.0437C126.11 43.1061 125.892 43.1795 125.693 43.2637C125.523 43.3402 125.349 43.4018 125.172 43.4486C125.054 44.0812 125.087 44.6895 125.273 45.2736C125.489 45.8498 125.67 46.4191 125.819 46.9814C126.084 47.9876 126.246 49.0211 126.304 50.0819C126.392 51.1349 126.573 52.1793 126.846 53.2151C127.065 54.0438 127.368 54.8342 127.756 55.5863C128.167 56.3011 128.481 57.0728 128.7 57.9015C128.817 58.3454 128.867 58.7753 128.85 59.1912C128.825 59.5776 128.771 59.9718 128.687 60.3737C128.633 60.7679 128.593 61.1581 128.569 61.5445C128.544 61.9309 128.586 62.3312 128.696 62.7455C128.766 63.0118 128.884 63.2813 129.051 63.5538C129.21 63.7967 129.325 64.0513 129.395 64.3177L129.199 64.6543C129.23 64.7727 129.287 64.8684 129.37 64.9416C129.445 64.9852 129.542 65.0544 129.662 65.1494C129.774 65.2148 129.879 65.3136 129.978 65.446C130.076 65.5783 130.16 65.7777 130.23 66.044C130.433 66.8134 130.577 67.5985 130.662 68.3992C130.746 69.1998 130.89 69.9849 131.093 70.7543C131.132 70.9023 131.248 71.22 131.44 71.7075C131.624 72.1654 131.846 72.7081 132.107 73.3358C132.397 73.9556 132.68 74.6089 132.956 75.2958C133.262 75.9748 133.556 76.6094 133.838 77.1997C134.12 77.7899 134.365 78.2953 134.57 78.7157C134.806 79.1284 134.965 79.3713 135.048 79.4445C135.37 79.7076 135.722 79.8998 136.102 80.021C136.474 80.1127 136.829 80.2566 137.165 80.4527C137.299 80.4806 137.485 80.4634 137.721 80.4009C138.047 80.3151 138.331 80.1926 138.574 80.0335C138.847 79.8667 139.138 79.7107 139.448 79.5657C139.75 79.391 140.064 79.2607 140.389 79.1749C140.744 79.0812 141.073 78.947 141.375 78.7723C141.691 78.5307 141.951 78.2563 142.155 77.9493C142.359 77.6423 142.552 77.354 142.734 77.0844C142.938 76.7774 143.168 76.5108 143.425 76.2848C143.674 76.0292 143.991 75.8506 144.376 75.7491C144.637 74.699 144.954 73.6815 145.327 72.6968C145.73 71.7042 146.014 70.6798 146.178 69.6235C146.312 69.6514 146.439 69.6498 146.557 69.6186C146.794 69.5561 146.97 69.4462 147.087 69.2887C147.234 69.1235 147.425 69.0097 147.662 68.9472C147.691 68.9394 147.851 68.9448 148.141 68.9633C148.423 68.9522 148.727 68.9668 149.055 69.0071C149.374 69.0178 149.682 69.0473 149.98 69.0954C150.27 69.1139 150.448 69.1301 150.515 69.1441C150.732 69.2452 150.935 69.4764 151.125 69.8377C151.345 70.1912 151.56 70.4668 151.771 70.6645C151.981 70.8623 152.161 71.0047 152.311 71.0918C152.461 71.179 152.584 71.2887 152.683 71.4211C152.803 71.516 152.901 71.6484 152.977 71.8182C153.083 71.9801 153.183 72.2386 153.277 72.5938C153.519 73.5112 153.557 74.4349 153.391 75.365C153.246 76.2578 153.169 77.1645 153.159 78.0851C152.813 78.3346 152.561 78.6385 152.402 78.9969C152.236 79.3257 152.073 79.6693 151.914 80.0277C151.785 80.3783 151.604 80.711 151.371 81.0258C151.167 81.3328 150.817 81.5675 150.322 81.7298C150.265 82.4729 150.032 83.1515 149.624 83.7655C149.217 84.3796 148.745 84.9313 148.209 85.4208C148.079 85.6452 147.851 85.8004 147.525 85.8862C147.347 85.9331 147.129 85.9433 146.868 85.917C146.638 85.8829 146.455 85.7887 146.319 85.6346C145.973 85.8841 145.731 86.1062 145.593 86.301C145.492 86.5176 145.405 86.7303 145.334 86.9391C145.27 87.1775 145.188 87.405 145.087 87.6216C145.015 87.8304 144.851 88.0478 144.594 88.2738C144.367 88.4921 143.998 88.7158 143.489 88.9451C143.009 89.1666 142.326 89.3945 141.438 89.6287C141.023 89.738 140.613 89.8621 140.207 90.001C139.837 90.1617 139.495 90.3629 139.179 90.6045C138.373 90.3106 137.452 90.2372 136.414 90.3842C135.385 90.5609 134.444 90.7141 133.592 90.8439C133.573 90.5324 133.445 90.4078 133.208 90.4703C132.972 90.5328 132.76 90.5095 132.573 90.4006C132.2 90.3089 131.864 90.1128 131.563 89.8124C131.27 89.5415 130.875 89.4241 130.378 89.4602C130.255 89.1129 130.047 88.8038 129.753 88.5329C129.468 88.2917 129.153 88.0582 128.809 87.8325C128.494 87.599 128.175 87.3507 127.853 87.0877C127.538 86.8542 127.289 86.5716 127.107 86.2399C126.614 85.4519 126.062 84.6796 125.451 83.9229C124.862 83.1288 124.343 82.3003 123.893 81.4376C123.695 81.0467 123.466 80.5374 123.205 79.9098C122.967 79.2447 122.72 78.5501 122.466 77.8259C122.241 77.0938 122.024 76.3914 121.815 75.7185C121.635 75.0379 121.487 74.4756 121.37 74.0317C121.175 73.2918 121.08 72.573 121.086 71.8751C121.084 71.1476 120.989 70.4287 120.802 69.7184C120.552 68.7714 120.232 67.8588 119.842 66.9804C119.452 66.102 119.106 65.2119 118.805 64.3101C118.613 63.8227 118.481 63.3196 118.407 62.8009C118.333 62.2822 118.23 61.7713 118.098 61.2682C117.895 60.4987 117.601 59.8641 117.215 59.3643C117.362 59.1991 117.463 58.9825 117.519 58.7145C117.604 58.4387 117.656 58.1559 117.675 57.8662C117.686 57.5468 117.667 57.2352 117.618 56.9315C117.599 56.6199 117.563 56.3606 117.508 56.1534L117.171 55.9574C117.113 55.4978 117.041 55.0422 116.953 54.5905C116.858 54.1092 116.752 53.6466 116.635 53.2027C116.51 52.7292 116.333 52.3009 116.106 51.9178C115.9 51.4973 115.617 51.1447 115.257 50.8598C115.073 50.4019 115 49.9463 115.039 49.4929C115.077 49.0396 115.042 48.6058 114.933 48.1915L114.657 47.5046C113.952 47.5954 113.238 47.768 112.514 48.0224C111.782 48.2471 111.076 48.4493 110.395 48.6289C109.922 48.7538 109.448 48.8787 108.975 49.0036C108.493 49.0989 108.026 49.1273 107.573 49.0886C106.957 48.5546 106.33 48.0394 105.693 47.5428C105.048 47.0167 104.616 46.3393 104.397 45.5107C104.147 44.5637 104.165 43.6726 104.452 42.8374C104.738 42.0023 105.001 41.1414 105.242 40.2549C105.589 40.1316 105.921 39.9491 106.237 39.7075C106.553 39.4658 106.851 39.2133 107.129 38.9498C107.438 38.6786 107.735 38.426 108.022 38.1922C108.308 37.9583 108.629 37.7946 108.984 37.7009C109.605 37.5369 110.24 37.5435 110.888 37.7207C111.529 37.8683 112.189 37.8524 112.87 37.6728L113.314 37.5557C113.376 37.1911 113.419 36.8157 113.444 36.4293C113.498 36.0351 113.449 35.6683 113.296 35.3288C113.117 35.2495 112.952 35.1662 112.803 35.0791C112.675 34.9545 112.588 34.8035 112.541 34.6259C112.502 34.4779 112.515 34.3478 112.58 34.2356C112.638 34.0938 112.635 33.9046 112.573 33.6678C112.393 32.9872 112.125 32.3299 111.768 31.6961C111.403 31.0327 111.123 30.3311 110.928 29.5912C110.772 28.9994 110.669 28.2509 110.62 27.3458C110.601 26.433 110.626 25.5084 110.696 24.5721C110.787 23.5984 110.938 22.6722 111.15 21.7935C111.361 20.9147 111.638 20.2244 111.98 19.7226C112.349 19.5619 112.712 19.4347 113.067 19.3411C113.422 19.2474 113.792 19.1498 114.176 19.0483C115.064 18.8141 115.87 18.8074 116.593 19.0281C117.316 19.2489 117.951 19.6193 118.5 20.1392C119.049 20.6592 119.517 21.2953 119.906 22.0475C120.286 22.7701 120.578 23.5161 120.781 24.2855C120.914 24.7886 120.944 25.4452 120.873 26.2553C120.802 27.0654 120.88 27.8996 121.106 28.7578C121.286 29.4385 121.503 30.1409 121.757 30.8651C122.004 31.5598 122.217 32.2474 122.396 32.9281C122.544 32.889 122.688 32.8352 122.828 32.7666C122.969 32.6979 123.113 32.6441 123.261 32.6051C123.852 32.4489 124.442 32.4042 125.029 32.4708C125.617 32.5374 126.206 32.4927 126.798 32.3365C127.212 32.2272 127.529 32.0487 127.749 31.8008C127.986 31.7384 128.194 31.7468 128.373 31.8262C128.544 31.8759 128.694 31.963 128.822 32.0876C128.971 32.1747 129.125 32.2767 129.282 32.3934C129.461 32.4728 129.658 32.4999 129.873 32.4748C130.27 32.1802 130.622 31.8341 130.929 31.4367C131.265 31.0315 131.661 30.6737 132.118 30.3634L139.753 28.3492C140.036 28.4643 140.294 28.602 140.527 28.7623C140.759 28.9226 141.067 28.952 141.452 28.8505C141.575 29.1978 141.754 29.5147 141.988 29.8012C142.251 30.0799 142.515 30.3586 142.778 30.6373C143.041 30.916 143.279 31.2173 143.491 31.5412C143.725 31.8277 143.893 32.1633 143.994 32.548Z" fill="#FCEEDB"/>
<path d="M90.5868 27.883C90.6727 28.2085 90.6494 28.4204 90.5171 28.5186C90.4065 28.5794 90.3303 28.7103 90.2883 28.9113C90.1703 29.5438 90.205 30.2152 90.3924 30.9255C90.6093 31.6279 90.711 32.3133 90.6974 32.9816C90.6838 33.6499 90.41 34.2919 89.8761 34.9076C89.3639 35.4859 88.3384 35.978 86.7995 36.3839C86.1188 36.5635 85.3704 36.666 84.5541 36.6914C83.7378 36.7169 83.0335 36.507 82.4413 36.0618L81.9974 36.1789C81.3167 36.3585 80.6788 36.4002 80.0837 36.3039C79.4807 36.1781 78.8653 35.9448 78.2373 35.604C78.0495 34.2925 77.8922 33.0362 77.7653 31.8352C77.6601 30.5968 77.347 29.35 76.8259 28.0947C77.0048 27.5727 77.2436 27.0982 77.5425 26.6712C77.8413 26.2442 78.1627 25.8428 78.5068 25.4672C78.8726 25.0541 79.2276 24.6598 79.5716 24.2841C79.9374 23.8711 80.2698 23.4511 80.5686 23.024C80.821 23.0208 81.0694 23.0027 81.314 22.9698C81.5586 22.937 81.7992 22.8893 82.036 22.8268C82.5095 22.7019 82.9456 22.5552 83.3443 22.3867C83.7429 22.2183 84.179 22.0716 84.6525 21.9466C85.0048 22.2019 85.3118 22.4058 85.5736 22.5583C85.8276 22.6812 85.9688 22.9763 85.9971 23.4437C86.3538 23.4762 86.667 23.5834 86.9366 23.7655C87.1984 23.9181 87.4533 24.1041 87.7011 24.3236C87.9785 24.5353 88.2411 24.7508 88.489 24.9703C88.7586 25.1524 89.05 25.2971 89.3632 25.4044L89.41 25.582C89.5271 26.0259 89.7252 26.4168 90.0043 26.7547C90.2833 27.0926 90.4775 27.4686 90.5868 27.883ZM96.1358 49.6368C96.2685 50.1399 96.3086 50.6516 96.2559 51.172C96.2033 51.6923 96.2137 52.2118 96.2873 52.7305C96.3533 53.821 96.5082 54.888 96.7519 55.9316C96.9955 56.9751 97.0725 58.0469 96.9829 59.1467C96.9627 59.3103 96.9573 59.47 96.9668 59.6258C96.9684 59.752 96.9888 59.889 97.0278 60.037C97.1137 60.3625 97.2252 60.6655 97.3625 60.9458C97.492 61.1965 97.5996 61.4847 97.6855 61.8102C97.7558 62.0765 97.7777 62.3398 97.7514 62.6C97.7173 62.8305 97.7314 63.0642 97.7939 63.3009C97.8798 63.6265 98.0622 63.9582 98.3413 64.2961C98.6126 64.6043 98.8106 64.9952 98.9355 65.4687C99.0527 65.9126 99.1293 66.383 99.1654 66.88C99.1937 67.3473 99.2665 67.8029 99.3836 68.2468C99.5085 68.7203 99.67 69.1525 99.8681 69.5434C100.066 69.9343 100.224 70.3517 100.341 70.7956C100.739 72.3049 101.078 73.8298 101.358 75.3703C101.63 76.8812 101.957 78.3617 102.34 79.8118C102.566 80.67 102.866 81.5087 103.241 82.3279C103.607 83.1175 103.904 83.9414 104.13 84.7996C104.443 85.9834 104.484 87.1595 104.254 88.328C104.054 89.4887 103.652 90.6074 103.05 91.6843C102.624 91.9867 102.203 92.1926 101.789 92.3019C101.367 92.3816 100.931 92.5283 100.48 92.742C100.171 92.8871 99.8802 93.1061 99.6093 93.3992C99.3602 93.6548 99.0729 93.8256 98.7473 93.9115C98.3034 94.0286 97.7893 93.8793 97.2048 93.4637C96.6204 93.0482 96.0569 92.5321 95.5144 91.9155C95.0015 91.2912 94.5478 90.6512 94.1533 89.9956C93.7587 89.34 93.5146 88.8346 93.4209 88.4795C93.1243 87.3549 92.9242 86.2365 92.8207 85.1243C92.739 83.9747 92.5498 82.8376 92.2531 81.7131C92.097 81.1212 92.0483 80.5168 92.1071 79.8998C92.1659 79.2829 92.1095 78.6489 91.9377 77.9979C91.6254 76.8141 91.1574 75.6398 90.5335 74.4749C89.9097 73.3101 89.4416 72.1358 89.1293 70.952C88.9498 70.2714 88.9182 69.5517 89.0345 68.7929C89.1431 68.0046 89.0959 67.2257 88.8929 66.4563C88.6899 65.6869 88.4465 64.9439 88.1625 64.2275C87.8707 63.4815 87.6233 62.7238 87.4204 61.9543C87.0427 60.8828 86.7282 59.8104 86.4767 58.7372C86.247 57.6267 85.9877 56.5239 85.6989 55.4289C85.5505 54.8666 85.343 54.32 85.0763 53.7889C84.8096 53.2579 84.6021 52.7112 84.4537 52.1489C84.3913 51.9122 84.3958 51.6894 84.4673 51.4806C84.5389 51.2718 84.5512 51.0786 84.5044 50.9011C84.3716 50.398 84.1945 49.9066 83.973 49.4269C83.7515 48.9473 83.5822 48.4855 83.4651 48.0416C83.3324 47.5385 83.2845 46.9972 83.3216 46.4176L83.784 46.0108L83.6435 45.4781C83.7804 45.1571 84.0582 44.8305 84.4771 44.4985C84.8881 44.1368 85.3405 43.8117 85.8341 43.5232C86.3496 43.1973 86.8619 42.9197 87.3712 42.6904C87.8804 42.4611 88.2978 42.3035 88.6234 42.2176C89.2152 42.0615 89.8439 42.1647 90.5093 42.5273C91.1669 42.8602 91.7575 43.1792 92.2811 43.4842C93.0961 43.9339 93.7102 44.3417 94.1232 44.7075C94.5284 45.0438 94.834 45.4221 95.0399 45.8426C95.2754 46.2553 95.4564 46.7615 95.5829 47.3612C95.7095 47.9609 95.8938 48.7194 96.1358 49.6368Z" fill="#FCEEDB"/>
<path d="M82.8909 92.8243C83.0656 93.1264 83.2293 93.4472 83.3822 93.7867C83.5569 94.0888 83.6871 94.4027 83.773 94.7282C83.937 95.3497 83.942 96.0289 83.7883 96.7658C83.6641 97.4949 83.402 98.1813 83.0021 98.825C82.6317 99.4608 82.1639 100.027 81.5987 100.525C81.0631 101.014 80.4846 101.341 79.8631 101.505C78.4722 101.872 77.0624 101.927 75.6338 101.671C74.2425 101.437 72.8948 101.127 71.5907 100.743C71.4066 100.285 71.1719 99.9359 70.8867 99.6946C70.5936 99.4237 70.2679 99.209 69.9095 99.0503C69.5511 98.8916 69.1927 98.7329 68.8343 98.5742C68.4681 98.386 68.1455 98.1229 67.8665 97.785C67.3103 97.8368 66.7643 97.8067 66.2284 97.6949C65.6846 97.5535 65.1408 97.412 64.5971 97.2706C64.0751 97.0918 63.5461 96.9465 63.0102 96.8346C62.4664 96.6932 61.9126 96.6336 61.3486 96.6557C60.7626 96.1139 60.1555 95.6727 59.5275 95.3319C58.8917 94.9615 58.2481 94.5616 57.5966 94.132L57.2859 94.214C56.909 94.3451 56.3747 94.3594 55.6829 94.257C55.013 94.1172 54.3057 93.9557 53.5609 93.7723C52.8162 93.5889 52.094 93.4312 51.3945 93.2993C50.6871 93.1377 50.1333 93.078 49.733 93.1203C49.3869 92.7685 49.0152 92.4392 48.6177 92.1326C48.2125 91.7964 47.8003 91.4936 47.381 91.2244C47.3033 91.5297 47.2739 91.8382 47.2928 92.1498C47.3413 92.4535 47.4046 92.7533 47.4826 93.0493C47.6388 93.6412 47.8541 94.2174 48.1286 94.7781C48.3953 95.3091 48.6068 95.8706 48.7629 96.4625C48.9191 97.0543 48.9864 97.6696 48.965 98.3083C48.9436 98.9471 49.011 99.5624 49.1671 100.154C49.2061 100.302 49.2818 100.409 49.394 100.474C49.5062 100.54 49.5935 100.691 49.6559 100.927C49.8667 101.726 49.9793 102.393 49.9937 102.927C50.0376 103.454 50.0254 103.948 49.9572 104.409C49.8889 104.87 49.7802 105.358 49.6309 105.872C49.4739 106.356 49.3294 106.949 49.1974 107.648C48.6166 108.086 48.052 108.346 47.5037 108.427C46.9928 108.53 46.3971 108.672 45.7164 108.851C45.3909 108.937 45.081 109.082 44.7867 109.286C44.5219 109.483 44.2268 109.624 43.9013 109.71L43.8125 109.733C42.9745 109.796 42.264 109.683 41.6812 109.394C41.0906 109.075 40.5841 108.654 40.1616 108.133C39.7609 107.574 39.4372 106.947 39.1907 106.252C38.9441 105.558 38.742 104.851 38.5842 104.133C38.4186 103.385 38.2717 102.649 38.1435 101.923C38.0153 101.197 37.8771 100.553 37.7287 99.9907C37.5336 99.2508 37.3088 98.5188 37.0544 97.7945C36.7922 97.0407 36.453 96.3547 36.0367 95.7365C36.1004 95.4981 36.1633 95.1967 36.2254 94.8321C36.2797 94.4379 36.3044 94.0516 36.2995 93.673C36.3242 93.2867 36.3231 92.9229 36.2965 92.5818C36.2916 92.2032 36.254 91.8808 36.1837 91.6144C36.1212 91.3777 36.0183 91.1675 35.8749 90.9837C35.7236 90.7704 35.6129 90.5306 35.5426 90.2642C35.4645 89.9683 35.4426 89.705 35.4767 89.4744C35.5108 89.2439 35.4928 88.9954 35.4225 88.7291C35.2976 88.2556 35.0769 87.839 34.7604 87.4793C34.444 87.1197 34.2233 86.7031 34.0984 86.2296C34.0125 85.904 33.9936 85.5925 34.0417 85.2949C34.0898 84.9973 34.0788 84.7154 34.0085 84.449C33.8524 83.8572 33.6409 83.2957 33.3742 82.7647C33.1075 82.2336 32.9039 81.7017 32.7634 81.169C32.6072 80.5772 32.5546 79.958 32.6057 79.3114C32.6489 78.6353 32.5885 77.9865 32.4245 77.3651C32.1591 76.3589 31.8384 75.3831 31.4623 74.4377C31.0785 73.4628 30.7539 72.4722 30.4885 71.466C30.3635 70.9925 30.2939 70.4886 30.2796 69.9543C30.2652 69.42 30.1956 68.9161 30.0707 68.4426C30.016 68.2354 29.91 68.0734 29.7526 67.9567C29.6248 67.8322 29.486 67.7263 29.3364 67.6392C29.179 67.5224 29.0364 67.4018 28.9086 67.2772C28.7808 67.1527 28.6965 66.9533 28.6559 66.6792C28.9346 66.4158 29.0349 66.1361 28.9568 65.8401C28.9083 65.5364 28.8411 65.2217 28.7553 64.8962C28.646 64.4819 28.6441 64.0551 28.7498 63.6157C28.8772 63.1389 28.8863 62.6934 28.777 62.2791C28.6911 61.9535 28.5056 61.6701 28.2204 61.4288C28.0408 60.7482 27.876 60.0636 27.7261 59.3752C27.6057 58.6789 27.5149 57.9748 27.4537 57.2629C27.0172 56.8083 26.6321 56.3085 26.2984 55.7635C25.9943 55.2106 25.7564 54.6087 25.5846 53.9576C25.4831 53.5729 25.4688 53.0386 25.5416 52.3546C25.6362 51.6333 25.783 50.9299 25.9819 50.2443C26.2105 49.5509 26.4921 48.9385 26.8267 48.4071C27.1831 47.8383 27.5832 47.4953 28.0272 47.3782C30.6018 46.699 32.7985 46.9267 34.6171 48.0612C36.4654 49.1879 37.7213 51.009 38.3849 53.5245C38.5645 54.2051 38.6849 54.9014 38.7461 55.6133C38.8073 56.3252 38.8537 57.041 38.8853 57.7607C38.9169 58.4804 38.9632 59.1961 39.0244 59.908C39.0856 60.6199 39.206 61.3162 39.3856 61.9968C39.5886 62.7663 39.899 63.5232 40.317 64.2676C40.7271 64.9823 41.0415 65.7541 41.2601 66.5827C41.5334 67.6185 41.7217 68.6925 41.8252 69.8047C41.9209 70.8873 42.1054 71.9465 42.3786 72.9823C42.4489 73.2486 42.534 73.5111 42.6338 73.7696C42.7337 74.0281 42.8444 74.268 42.9661 74.4891L43.2324 74.4188C43.8025 74.3001 44.2456 74.1199 44.5617 73.8782C44.9074 73.6288 45.2009 73.3614 45.4421 73.0762C45.6756 72.7614 45.9091 72.4466 46.1426 72.1317C46.4056 71.8091 46.7396 71.5153 47.1445 71.2502C47.3575 70.4976 47.6826 69.8104 48.12 69.1886C48.5869 68.559 49.0617 67.9589 49.5443 67.3885C49.5986 66.9943 49.6676 66.5962 49.7515 66.1943C49.8572 65.7549 49.8998 65.3163 49.8792 64.8786C50.3043 64.4499 50.6584 63.9925 50.9416 63.5063C51.217 62.9905 51.4589 62.4677 51.6674 61.9379C51.8758 61.4081 52.0694 60.8822 52.2482 60.3603C52.4489 59.8009 52.6682 59.2524 52.9062 58.7148C53.0213 58.4312 53.1629 58.1881 53.331 57.9855C53.4991 57.7829 53.6556 57.5359 53.8003 57.2445C53.9433 56.8269 54.0677 56.3984 54.1733 55.959C54.279 55.5197 54.3886 55.0951 54.502 54.6853C54.6451 54.2677 54.8147 53.8906 55.0108 53.554C55.2286 53.18 55.54 52.8605 55.9449 52.5954C56.0683 50.6636 56.5992 48.9567 57.5377 47.4747L57.3552 47.143C57.2694 46.8174 57.2544 46.5207 57.3103 46.2527C57.3662 45.9847 57.4369 45.7128 57.5224 45.4371C57.6001 45.1317 57.6591 44.8154 57.6994 44.4882C57.7319 44.1315 57.6896 43.7311 57.5725 43.2872C57.5413 43.1689 57.6198 42.9266 57.8081 42.5604C58.0182 42.1568 58.2352 41.7197 58.4592 41.2491C58.6833 40.7785 58.8816 40.3305 59.0543 39.9051C59.2487 39.4423 59.3147 39.0925 59.2523 38.8558L59.5186 38.7855C59.8737 38.6918 60.1836 38.5468 60.4484 38.3503C60.7427 38.1461 61.0183 37.9309 61.2752 37.7049C61.5321 37.4788 61.7929 37.2676 62.0576 37.0711C62.3223 36.8747 62.6174 36.7335 62.9429 36.6476C63.3868 36.5305 63.8885 36.5723 64.4479 36.7729C65.029 36.9361 65.5853 37.185 66.1167 37.5196C66.6482 37.8542 67.1173 38.2528 67.5242 38.7152C67.9232 39.148 68.1774 39.5716 68.2867 39.9859C68.4507 40.6074 68.5406 41.2483 68.5566 41.9089C68.5726 42.5694 68.5551 43.2229 68.5041 43.8694C68.4827 44.5081 68.4464 45.1507 68.3954 45.7973C68.374 46.436 68.4009 47.0778 68.4761 47.7227C68.16 47.9643 67.9304 48.2939 67.7873 48.7115C67.6739 49.1213 67.6017 49.5677 67.5708 50.0506C67.54 50.5335 67.5239 51.0126 67.5226 51.4877C67.5136 51.9333 67.4593 52.3274 67.3598 52.6702C67.2307 53.0208 67.0129 53.3948 66.7062 53.7922C66.4292 54.1819 66.1373 54.5754 65.8307 54.9728C65.5536 55.3624 65.3022 55.7295 65.0766 56.0739C64.8431 56.3887 64.7093 56.6614 64.6752 56.892C64.4626 58.2458 64.1439 59.4378 63.7193 60.4677C63.3164 61.4603 62.887 62.4124 62.4312 63.324C61.9753 64.2356 61.549 65.1394 61.1523 66.0354C60.7556 66.9314 60.4641 67.9262 60.2779 69.0199C59.82 69.204 59.4743 69.4535 59.2408 69.7683C59.0073 70.0831 58.8152 70.4345 58.6643 70.8225C58.5056 71.1809 58.3547 71.5689 58.2117 71.9865C58.0982 72.3963 57.9138 72.7773 57.6586 73.1295C57.52 73.3243 57.3363 73.4677 57.1074 73.5598C56.908 73.644 56.7539 73.7797 56.6449 73.9667C56.536 74.1537 56.4131 74.4077 56.2762 74.7287C56.1689 75.0418 56.0655 75.3698 55.966 75.7126C55.8665 76.0554 55.7818 76.3943 55.7119 76.7292C55.6638 77.0268 55.6632 77.2644 55.71 77.4419C55.2817 77.6182 54.9361 77.8677 54.673 78.1903C54.4395 78.5051 54.2286 78.8457 54.0404 79.2119C53.8443 79.5485 53.6334 79.889 53.4077 80.2334C53.2117 80.57 52.9369 80.8482 52.5834 81.0681C52.7067 81.4154 52.9405 81.7019 53.2849 81.9276C53.6215 82.1237 53.9986 82.2932 54.4162 82.4363C54.8338 82.5794 55.2623 82.7037 55.7016 82.8094C56.1332 82.8855 56.5056 82.9772 56.8188 83.0844C57.2068 83.2353 57.5543 83.4127 57.8613 83.6166C58.1979 83.8127 58.5859 83.9635 59.0252 84.0692C59.4428 84.2123 59.8666 84.2587 60.2965 84.2086C60.7264 84.1585 61.1354 84.2089 61.5234 84.3598C62.0671 84.5012 62.5721 84.7953 63.0381 85.2421C63.4964 85.6593 63.9826 85.9425 64.4967 86.0918C65.0779 86.255 65.6879 86.3473 66.3266 86.3687C66.9575 86.3606 67.5713 86.4677 68.1681 86.6901C68.4439 86.7756 68.6722 86.9211 68.853 87.1266C69.0635 87.3243 69.3253 87.4768 69.6385 87.5841C69.9438 87.6618 70.331 87.7496 70.8 87.8475C71.2689 87.9453 71.7309 88.0767 72.1859 88.2415C72.6627 88.369 73.1028 88.5377 73.5064 88.7478C73.9318 88.9205 74.2723 89.1313 74.528 89.3804L74.7055 89.3336C75.0529 89.2103 75.3792 89.1875 75.6846 89.2652C76.0118 89.3055 76.3319 89.3793 76.6451 89.4866C76.9505 89.5643 77.2707 89.6381 77.6056 89.708C77.9328 89.7483 78.2849 89.7029 78.6618 89.5718C79.2059 90.3146 79.8707 90.9147 80.6561 91.3722C81.4337 91.8002 82.1786 92.2842 82.8909 92.8243Z" fill="#FCEEDB"/>
<path d="M211.794 152.339V152.59C211.815 153.177 211.721 153.66 211.511 154.037C211.322 154.414 211.071 154.739 210.756 155.012C210.442 155.284 210.086 155.536 209.687 155.766C209.289 155.997 208.891 156.248 208.492 156.521V156.772C208.492 157.129 208.43 157.475 208.304 157.81C208.199 158.125 208.115 158.449 208.052 158.785H207.926C207.612 158.743 207.329 158.795 207.077 158.942C206.847 159.089 206.616 159.162 206.386 159.162C206.197 159.162 205.998 159.099 205.788 158.974C205.579 159.015 205.442 159.089 205.38 159.194C205.317 159.298 205.254 159.414 205.191 159.54C205.128 159.665 205.034 159.781 204.908 159.885C204.782 159.969 204.562 160.011 204.248 160.011C204.143 160.011 204.017 160.074 203.87 160.2C203.744 160.305 203.598 160.43 203.43 160.577C203.283 160.724 203.137 160.86 202.99 160.986C202.843 161.133 202.728 161.227 202.644 161.269C202.539 161.332 202.403 161.363 202.235 161.363C202.067 161.384 201.879 161.395 201.669 161.395C201.48 161.416 201.292 161.426 201.103 161.426C200.914 161.447 200.747 161.468 200.6 161.489C200.432 161.531 200.275 161.615 200.128 161.741C200.003 161.866 199.877 161.929 199.751 161.929C199.583 161.929 199.426 161.887 199.279 161.803C199.154 161.72 199.007 161.678 198.839 161.678C198.692 161.678 198.514 161.72 198.305 161.803C198.095 161.887 197.864 161.982 197.613 162.086C197.361 162.191 197.089 162.286 196.795 162.369C196.502 162.453 196.198 162.495 195.883 162.495C195.464 162.495 195.097 162.432 194.783 162.307C194.762 162.307 194.636 162.233 194.406 162.086C194.196 161.961 193.923 161.793 193.588 161.583C193.274 161.374 192.928 161.143 192.55 160.892C192.173 160.661 191.817 160.441 191.481 160.231C191.146 160.001 190.863 159.812 190.632 159.665C190.402 159.519 190.265 159.435 190.224 159.414L190.035 158.974C189.741 158.848 189.479 158.691 189.249 158.502C189.039 158.313 188.871 158.062 188.746 157.747C188.536 157.621 188.358 157.464 188.211 157.276C188.064 157.066 187.918 156.856 187.771 156.647C187.624 156.437 187.467 156.248 187.299 156.081C187.132 155.892 186.922 155.756 186.67 155.672C186.482 155.253 186.304 154.833 186.136 154.414C185.968 153.995 185.8 153.576 185.633 153.156L185.193 152.779C185.151 152.653 185.151 152.538 185.193 152.433C185.234 152.307 185.255 152.192 185.255 152.087C185.255 152.003 185.182 151.825 185.035 151.553C184.91 151.28 184.763 150.987 184.595 150.672C184.448 150.337 184.302 150.012 184.155 149.698C184.029 149.383 183.966 149.142 183.966 148.974C183.966 148.66 183.998 148.356 184.061 148.062C184.123 147.769 184.155 147.476 184.155 147.182C184.155 146.931 184.102 146.689 183.998 146.459C183.893 146.207 183.819 145.956 183.778 145.704C183.715 145.369 183.694 145.023 183.715 144.667C183.757 144.31 183.778 143.964 183.778 143.629C183.778 143.377 183.736 143.126 183.652 142.874C183.568 142.623 183.526 142.361 183.526 142.088C183.526 141.837 183.599 141.606 183.746 141.396C183.893 141.187 183.966 140.967 183.966 140.736C183.966 140.065 183.872 139.405 183.683 138.755C183.495 138.084 183.4 137.413 183.4 136.743C183.4 136.219 183.536 135.653 183.809 135.045C184.081 134.437 184.417 133.976 184.815 133.661V132.183C185.004 132.141 185.14 132.047 185.224 131.9C185.329 131.754 185.413 131.586 185.476 131.397C185.538 131.209 185.591 131.02 185.633 130.831C185.696 130.622 185.769 130.443 185.853 130.297C185.958 130.108 186.062 129.951 186.167 129.825C186.272 129.678 186.366 129.542 186.45 129.416C186.534 129.269 186.597 129.112 186.639 128.945C186.681 128.756 186.691 128.525 186.67 128.253C187.027 128.127 187.352 127.949 187.645 127.718C187.939 127.488 188.222 127.247 188.494 126.995C188.788 126.743 189.081 126.502 189.375 126.272C189.689 126.041 190.035 125.863 190.412 125.737C190.685 125.381 191.135 125.035 191.764 124.7C192.393 124.343 193.033 124.018 193.682 123.725C194.332 123.431 194.909 123.18 195.412 122.97C195.915 122.74 196.177 122.572 196.198 122.467C196.785 122.53 197.393 122.561 198.022 122.561C198.651 122.561 199.279 122.572 199.908 122.593C200.537 122.614 201.156 122.677 201.763 122.782C202.371 122.865 202.948 123.033 203.493 123.285C203.556 123.41 203.629 123.526 203.713 123.631C203.818 123.735 203.912 123.84 203.996 123.945C204.08 124.029 204.153 124.134 204.216 124.259C204.279 124.385 204.31 124.532 204.31 124.7C205.065 124.993 205.725 125.486 206.291 126.178C206.878 126.848 207.36 127.613 207.738 128.473C208.136 129.311 208.43 130.192 208.618 131.114C208.807 132.016 208.901 132.844 208.901 133.598C208.901 133.829 208.849 134.018 208.744 134.164C208.66 134.311 208.576 134.489 208.492 134.699C208.388 134.887 208.346 135.097 208.367 135.328C208.388 135.558 208.346 135.757 208.241 135.925C208.136 136.24 207.979 136.523 207.769 136.774C207.56 137.026 207.371 137.298 207.203 137.592C206.826 138.472 206.428 139.332 206.008 140.17C205.589 141.009 205.086 141.826 204.499 142.623C204.268 142.916 203.996 143.199 203.682 143.472C203.367 143.744 203.168 144.08 203.084 144.478C202.707 144.478 202.413 144.572 202.204 144.761C201.994 144.929 201.805 145.117 201.638 145.327C201.47 145.516 201.281 145.694 201.072 145.861C200.862 146.029 200.569 146.102 200.191 146.082C200.024 146.375 199.845 146.637 199.657 146.868C199.489 147.077 199.3 147.308 199.091 147.559C198.881 147.559 198.703 147.612 198.556 147.717C198.43 147.8 198.294 147.905 198.147 148.031C198.001 148.136 197.843 148.23 197.676 148.314C197.508 148.398 197.298 148.429 197.047 148.408C196.858 148.681 196.638 148.922 196.387 149.132C196.135 149.32 195.873 149.509 195.6 149.698C195.349 149.886 195.108 150.096 194.877 150.326C194.647 150.536 194.468 150.798 194.343 151.113C194.112 151.175 193.84 151.238 193.525 151.301C193.232 151.343 193.033 151.49 192.928 151.741C192.928 152.14 193.012 152.517 193.179 152.873C193.347 153.209 193.672 153.377 194.154 153.377C194.322 153.691 194.542 153.963 194.814 154.194C195.087 154.404 195.359 154.624 195.632 154.854C196.156 154.812 196.68 154.812 197.204 154.854C197.728 154.896 198.252 154.917 198.776 154.917C199.405 154.917 199.898 154.865 200.254 154.76C200.611 154.655 200.894 154.54 201.103 154.414C201.334 154.267 201.522 154.142 201.669 154.037C201.837 153.911 202.036 153.838 202.267 153.817C202.56 153.293 202.864 152.79 203.178 152.307C203.493 151.825 203.933 151.49 204.499 151.301C204.667 150.987 204.855 150.672 205.065 150.358C205.275 150.022 205.463 149.687 205.631 149.352C205.82 148.995 205.946 148.639 206.008 148.283C206.092 147.926 206.092 147.559 206.008 147.182C206.197 146.931 206.407 146.616 206.637 146.239C206.889 145.84 207.161 145.463 207.455 145.107C207.748 144.75 208.052 144.446 208.367 144.195C208.702 143.943 209.048 143.818 209.404 143.818C209.74 143.818 210.033 143.933 210.285 144.163C210.536 144.373 210.756 144.604 210.945 144.855C211.364 144.918 211.71 145.075 211.983 145.327C212.276 145.557 212.496 145.84 212.643 146.176C212.811 146.49 212.926 146.847 212.989 147.245C213.052 147.622 213.083 147.989 213.083 148.345C213.083 148.995 212.978 149.708 212.769 150.484C212.58 151.259 212.255 151.878 211.794 152.339ZM201.418 130.957C201.313 130.978 201.239 130.967 201.197 130.926C201.177 130.863 201.156 130.8 201.135 130.737C201.114 130.653 201.093 130.58 201.072 130.517C201.051 130.433 201.019 130.36 200.977 130.297C200.873 130.171 200.652 130.024 200.317 129.856C200.003 129.689 199.646 129.542 199.248 129.416C198.871 129.269 198.483 129.144 198.085 129.039C197.707 128.934 197.424 128.882 197.236 128.882C196.816 128.882 196.47 128.955 196.198 129.102C195.946 129.249 195.716 129.406 195.506 129.573C195.296 129.741 195.087 129.898 194.877 130.045C194.689 130.192 194.448 130.276 194.154 130.297C194.154 130.485 194.102 130.664 193.997 130.831C193.913 130.999 193.798 131.156 193.651 131.303C193.525 131.45 193.389 131.596 193.242 131.743C193.116 131.89 193.012 132.037 192.928 132.183C192.76 132.498 192.645 132.844 192.582 133.221C192.519 133.577 192.414 133.934 192.267 134.29C192.1 134.688 191.922 135.066 191.733 135.422C191.544 135.757 191.387 136.135 191.261 136.554L190.79 136.994C190.685 137.393 190.622 137.812 190.601 138.252C190.601 138.671 190.601 139.09 190.601 139.51C190.601 140.055 190.664 140.579 190.79 141.082C190.915 141.564 190.999 142.078 191.041 142.623C191.041 142.811 191.02 143.021 190.978 143.252C190.936 143.461 190.915 143.681 190.915 143.912C190.915 144.017 190.915 144.111 190.915 144.195C190.936 144.279 190.978 144.373 191.041 144.478H191.198C191.429 144.499 191.628 144.467 191.796 144.384C191.963 144.3 192.121 144.195 192.267 144.069C192.414 143.943 192.55 143.807 192.676 143.66C192.802 143.493 192.949 143.335 193.116 143.189C193.242 143.084 193.378 143.021 193.525 143C193.672 142.979 193.819 142.916 193.965 142.811C194.07 142.707 194.133 142.602 194.154 142.497C194.175 142.371 194.238 142.256 194.343 142.151C194.531 141.983 194.762 141.837 195.034 141.711C195.328 141.585 195.59 141.459 195.821 141.333C196.072 141.208 196.282 141.05 196.449 140.862C196.638 140.673 196.816 140.484 196.984 140.296C197.173 140.107 197.372 139.939 197.581 139.793C197.791 139.625 198.043 139.51 198.336 139.447C198.462 139.3 198.619 139.07 198.808 138.755C198.996 138.42 199.185 138.063 199.374 137.686C199.562 137.309 199.73 136.942 199.877 136.585C200.045 136.208 200.149 135.915 200.191 135.705H200.317C200.527 135.705 200.684 135.642 200.789 135.516C200.914 135.37 201.061 135.244 201.229 135.139C201.334 134.908 201.397 134.678 201.418 134.447C201.46 134.196 201.48 133.955 201.48 133.724C201.48 133.242 201.439 132.781 201.355 132.341C201.292 131.9 201.313 131.439 201.418 130.957Z" fill="#FCEEDB"/>
<path d="M177.931 132.624C177.931 133.022 177.858 133.41 177.711 133.787C177.586 134.164 177.523 134.552 177.523 134.95C177.481 135.265 177.47 135.59 177.491 135.925C177.512 136.24 177.523 136.554 177.523 136.868C177.523 137.12 177.481 137.403 177.397 137.717C177.313 138.032 177.219 138.346 177.114 138.661C177.03 138.954 176.957 139.237 176.894 139.51C176.852 139.761 176.852 139.981 176.894 140.17C176.6 140.401 176.37 140.631 176.202 140.862C176.055 141.071 176.003 141.375 176.045 141.774C175.793 141.879 175.594 141.994 175.447 142.12C175.322 142.224 175.112 142.256 174.819 142.214C174.651 142.591 174.441 142.927 174.19 143.22C173.938 143.514 173.655 143.786 173.341 144.038C173.047 144.289 172.733 144.541 172.397 144.792C172.083 145.023 171.779 145.264 171.485 145.516C171.024 145.411 170.574 145.358 170.133 145.358C169.693 145.358 169.242 145.274 168.781 145.107C168.299 144.457 167.943 143.702 167.712 142.843C167.503 141.962 167.303 141.134 167.115 140.359C167.178 140.191 167.345 139.929 167.618 139.573C167.89 139.195 168.194 138.807 168.53 138.409C168.886 138.011 169.222 137.655 169.536 137.34C169.85 137.026 170.091 136.847 170.259 136.806C170.364 136.323 170.5 135.852 170.668 135.391C170.836 134.929 170.919 134.437 170.919 133.913C170.919 133.305 170.699 132.812 170.259 132.435C169.777 132.54 169.4 132.76 169.127 133.095C168.855 133.41 168.54 133.682 168.184 133.913C167.828 133.913 167.513 133.955 167.241 134.038C166.968 134.122 166.664 134.143 166.329 134.101C166.119 134.143 165.962 134.238 165.857 134.384C165.752 134.51 165.647 134.646 165.543 134.793C165.438 134.94 165.302 135.087 165.134 135.233C164.966 135.38 164.725 135.495 164.411 135.579C164.39 135.621 164.348 135.695 164.285 135.799C164.243 135.904 164.18 136.019 164.096 136.145C164.033 136.271 163.97 136.397 163.907 136.523C163.866 136.648 163.834 136.743 163.813 136.806H163.373C163.205 137.036 163.069 137.277 162.964 137.529C162.88 137.78 162.734 138.032 162.524 138.283C162.335 138.556 162.115 138.86 161.864 139.195C161.612 139.51 161.361 139.845 161.109 140.202C160.878 140.558 160.679 140.925 160.512 141.302C160.365 141.658 160.291 142.025 160.291 142.403C160.291 142.633 160.323 142.853 160.386 143.063C160.449 143.252 160.48 143.44 160.48 143.629C160.48 144.09 160.407 144.551 160.26 145.012C160.134 145.453 160.071 145.893 160.071 146.333C160.071 146.627 160.103 146.92 160.166 147.214C160.25 147.507 160.291 147.8 160.291 148.094C160.291 148.534 160.208 148.964 160.04 149.383C159.893 149.802 159.82 150.253 159.82 150.735C159.82 151.28 159.851 151.825 159.914 152.37C159.998 152.894 160.082 153.429 160.166 153.974C160.27 154.519 160.354 155.074 160.417 155.64C160.501 156.186 160.543 156.741 160.543 157.307C160.543 158.02 160.428 158.659 160.197 159.225C159.987 159.791 159.799 160.409 159.631 161.08C159.212 161.374 158.709 161.667 158.122 161.961C157.556 162.275 157.011 162.432 156.487 162.432C156.067 162.432 155.743 162.307 155.512 162.055C155.281 161.803 155.135 161.479 155.072 161.08C154.548 160.892 154.076 160.619 153.657 160.263C153.636 159.99 153.552 159.739 153.405 159.508C153.279 159.277 153.133 159.047 152.965 158.816C152.818 158.586 152.682 158.345 152.556 158.093C152.43 157.821 152.368 157.506 152.368 157.15C152.368 156.772 152.42 156.395 152.525 156.018C152.63 155.62 152.682 155.211 152.682 154.791C152.682 154.645 152.672 154.519 152.651 154.414C152.63 154.288 152.619 154.173 152.619 154.068C152.619 153.922 152.651 153.796 152.713 153.691C152.776 153.586 152.839 153.492 152.902 153.408C152.965 153.303 153.028 153.198 153.091 153.094C153.154 152.989 153.185 152.842 153.185 152.653C153.185 152.528 153.154 152.423 153.091 152.339C153.028 152.234 152.955 152.14 152.871 152.056C152.787 151.951 152.713 151.846 152.651 151.741C152.588 151.616 152.556 151.469 152.556 151.301C152.556 150.463 152.609 149.645 152.713 148.849C152.818 148.031 152.871 147.193 152.871 146.333C152.871 145.83 152.829 145.327 152.745 144.824C152.682 144.321 152.493 143.859 152.179 143.44C152.305 143.273 152.389 143.094 152.43 142.906C152.472 142.696 152.493 142.486 152.493 142.277C152.493 141.774 152.441 141.271 152.336 140.767C152.231 140.243 152.179 139.719 152.179 139.195C152.179 138.713 152.252 138.262 152.399 137.843C152.546 137.424 152.619 136.847 152.619 136.114C152.619 135.904 152.651 135.705 152.713 135.516C152.776 135.328 152.808 135.139 152.808 134.95C152.808 134.867 152.766 134.699 152.682 134.447C152.598 134.196 152.493 133.892 152.368 133.535C152.263 133.179 152.168 132.791 152.085 132.372C152.001 131.932 151.959 131.481 151.959 131.02C151.959 130.559 152.022 130.077 152.147 129.573C152.294 129.049 152.368 128.41 152.368 127.655C152.368 127.131 152.514 126.681 152.808 126.303C153.122 125.926 153.51 125.622 153.971 125.391C154.432 125.161 154.915 124.993 155.418 124.888C155.942 124.763 156.424 124.7 156.864 124.7C157.451 124.7 157.996 124.825 158.499 125.077C159.002 125.308 159.38 125.695 159.631 126.24C159.589 126.89 159.537 127.551 159.474 128.221C159.411 128.871 159.401 129.521 159.442 130.171V131.209C159.757 131.209 160.008 131.135 160.197 130.988C160.407 130.821 160.585 130.643 160.732 130.454C160.899 130.244 161.067 130.056 161.235 129.888C161.423 129.699 161.664 129.584 161.958 129.542C162.084 129.186 162.262 128.861 162.493 128.567C162.723 128.253 162.954 127.949 163.184 127.655C163.771 127.404 164.316 127.1 164.819 126.744C165.322 126.366 165.826 126.01 166.329 125.674C166.832 125.318 167.356 125.014 167.901 124.763C168.467 124.511 169.106 124.385 169.819 124.385C170.406 124.385 170.93 124.521 171.391 124.794C171.873 125.066 172.314 125.402 172.712 125.8H173.026C173.634 125.8 174.211 125.947 174.756 126.24C175.301 126.513 175.793 126.859 176.234 127.278C176.632 127.634 176.925 127.949 177.114 128.221C177.303 128.473 177.428 128.735 177.491 129.007C177.575 129.28 177.617 129.594 177.617 129.951C177.638 130.286 177.68 130.705 177.743 131.209C177.785 131.46 177.827 131.701 177.869 131.932C177.911 132.162 177.931 132.393 177.931 132.624Z" fill="#FCEEDB"/>
<path d="M143.251 156.144C143.188 156.458 143.105 156.731 143 156.961C142.916 157.171 142.832 157.391 142.748 157.621C142.685 157.831 142.633 158.062 142.591 158.313C142.57 158.565 142.58 158.869 142.622 159.225C142.434 159.33 142.297 159.477 142.214 159.665C142.13 159.833 142.056 160.022 141.994 160.231C141.952 160.42 141.899 160.619 141.836 160.829C141.794 161.038 141.711 161.217 141.585 161.363C141.124 161.217 140.662 161.154 140.201 161.175C139.74 161.196 139.279 161.206 138.818 161.206C138.336 161.206 137.969 161.164 137.717 161.08C137.466 161.017 137.162 160.829 136.805 160.514C136.554 160.263 136.302 160.158 136.051 160.2C135.82 160.242 135.6 160.252 135.39 160.231C135.202 160.21 135.044 160.074 134.919 159.823C134.814 159.55 134.761 159.005 134.761 158.187C134.761 158.062 134.751 157.925 134.73 157.779C134.709 157.632 134.636 157.496 134.51 157.37C133.965 157.496 133.462 157.726 133.001 158.062C132.539 158.376 132.099 158.712 131.68 159.068C131.261 159.403 130.841 159.697 130.422 159.948C130.003 160.2 129.563 160.305 129.102 160.263C128.871 160.493 128.651 160.724 128.441 160.955C128.232 161.185 127.98 161.384 127.687 161.552C127.54 161.615 127.288 161.688 126.932 161.772C126.596 161.856 126.24 161.929 125.863 161.992C125.485 162.055 125.119 162.107 124.762 162.149C124.406 162.212 124.154 162.244 124.008 162.244C123.567 162.244 123.054 162.097 122.467 161.803C121.88 161.531 121.293 161.237 120.706 160.923C120.14 160.609 119.605 160.336 119.102 160.106C118.599 159.854 118.19 159.77 117.876 159.854C117.645 159.665 117.478 159.435 117.373 159.162C117.268 158.869 117.1 158.607 116.87 158.376C116.597 158.146 116.304 157.957 115.989 157.81C115.675 157.663 115.402 157.443 115.172 157.15C115.025 156.94 114.91 156.72 114.826 156.489C114.763 156.238 114.69 155.986 114.606 155.735C114.543 155.462 114.459 155.2 114.354 154.949C114.27 154.697 114.134 154.467 113.946 154.257C114.029 153.901 114.082 153.46 114.103 152.936C114.124 152.412 114.155 151.888 114.197 151.364C114.26 150.819 114.354 150.316 114.48 149.855C114.627 149.394 114.857 149.058 115.172 148.849V148.597C115.172 147.947 115.277 147.423 115.486 147.025C115.696 146.606 115.958 146.239 116.272 145.924C116.587 145.589 116.933 145.274 117.31 144.981C117.687 144.688 118.033 144.331 118.348 143.912C118.536 143.765 118.736 143.713 118.945 143.755C119.155 143.776 119.364 143.734 119.574 143.629L119.763 143.252C119.867 143.21 119.962 143.199 120.046 143.22C120.13 143.241 120.203 143.252 120.266 143.252C120.371 143.252 120.475 143.21 120.58 143.126C120.685 143.042 120.79 142.958 120.895 142.874C120.999 142.769 121.104 142.675 121.209 142.591C121.335 142.507 121.471 142.465 121.618 142.465C121.681 142.465 121.754 142.486 121.838 142.528C121.922 142.549 121.995 142.581 122.058 142.623C122.205 142.392 122.373 142.193 122.561 142.025C122.771 141.837 122.98 141.658 123.19 141.491C123.4 141.323 123.599 141.155 123.788 140.988C123.997 140.799 124.175 140.589 124.322 140.359C124.406 140.401 124.532 140.422 124.699 140.422C124.888 140.422 125.035 140.38 125.14 140.296C125.244 140.191 125.349 140.086 125.454 139.981C125.58 139.856 125.716 139.751 125.863 139.667C126.01 139.562 126.23 139.51 126.523 139.51C126.586 139.51 126.712 139.468 126.9 139.384C127.089 139.3 127.288 139.206 127.498 139.101C127.708 138.975 127.907 138.86 128.095 138.755C128.284 138.629 128.42 138.535 128.504 138.472L128.85 138.409C129.039 138.409 129.217 138.451 129.385 138.535C129.552 138.598 129.73 138.65 129.919 138.692C130.192 138.42 130.464 138.158 130.737 137.906C131.009 137.655 131.229 137.351 131.397 136.994C131.669 136.91 131.984 136.753 132.34 136.523C132.697 136.292 133.032 136.03 133.346 135.736C133.682 135.443 133.954 135.129 134.164 134.793C134.395 134.437 134.51 134.101 134.51 133.787C134.51 133.452 134.416 133.127 134.227 132.812C134.059 132.498 133.86 132.194 133.629 131.9C133.399 131.586 133.168 131.271 132.938 130.957C132.707 130.643 132.539 130.318 132.435 129.982H132.309C132.057 129.982 131.827 129.867 131.617 129.636C131.428 129.385 131.208 129.228 130.957 129.165C130.747 129.081 130.527 129.039 130.296 129.039C130.066 129.039 129.835 129.039 129.605 129.039C129.374 129.039 129.143 129.018 128.913 128.976C128.703 128.934 128.504 128.84 128.315 128.693C127.896 128.777 127.561 128.934 127.309 129.165C127.058 129.374 126.806 129.594 126.555 129.825C126.303 130.056 126.01 130.255 125.674 130.422C125.339 130.569 124.888 130.622 124.322 130.58C123.945 131.355 123.599 132.162 123.284 133.001C122.991 133.839 122.582 134.615 122.058 135.328C121.932 135.789 121.807 136.25 121.681 136.711C121.576 137.151 121.366 137.529 121.052 137.843C120.633 137.969 120.203 138.032 119.763 138.032C119.302 138.032 118.788 137.948 118.222 137.78C117.677 137.592 117.163 137.34 116.681 137.026C116.199 136.711 115.79 136.344 115.455 135.925C115.14 135.485 114.983 135.013 114.983 134.51C114.983 133.965 115.088 133.431 115.298 132.907C115.528 132.361 115.644 131.795 115.644 131.209C115.937 131.104 116.168 130.936 116.335 130.705C116.503 130.475 116.65 130.234 116.776 129.982C116.922 129.71 117.069 129.458 117.216 129.228C117.383 128.997 117.604 128.819 117.876 128.693V128.441C117.876 128.253 117.928 128.117 118.033 128.033C118.138 127.928 118.159 127.739 118.096 127.467C119.06 126.901 119.826 126.136 120.392 125.171C120.748 125.004 121.125 124.867 121.524 124.763C121.922 124.658 122.299 124.511 122.656 124.322C122.97 124.197 123.263 124.018 123.536 123.788C123.829 123.557 124.154 123.389 124.511 123.285C125.035 123.18 125.548 123.169 126.051 123.253C126.576 123.316 127.079 123.348 127.561 123.348C127.98 123.348 128.336 123.264 128.63 123.096C128.944 122.928 129.311 122.844 129.73 122.844C130.15 122.844 130.569 122.876 130.988 122.939C131.407 122.981 131.827 123.033 132.246 123.096C132.435 123.138 132.602 123.211 132.749 123.316C132.917 123.4 133.095 123.473 133.284 123.536C133.933 123.662 134.405 123.735 134.699 123.756C134.992 123.756 135.244 123.798 135.453 123.882C135.663 123.966 135.883 124.134 136.114 124.385C136.344 124.616 136.711 125.025 137.214 125.612H137.34C137.612 125.612 137.895 125.716 138.189 125.926C138.482 126.115 138.755 126.356 139.006 126.649C139.279 126.922 139.509 127.215 139.698 127.53C139.887 127.823 140.023 128.085 140.107 128.316C140.233 128.63 140.306 128.976 140.327 129.353C140.348 129.71 140.421 130.045 140.547 130.36C140.673 130.653 140.83 130.926 141.019 131.177C141.207 131.429 141.386 131.68 141.553 131.932C141.742 132.183 141.899 132.445 142.025 132.718C142.172 132.99 142.245 133.284 142.245 133.598C142.245 134.018 142.193 134.426 142.088 134.825C142.004 135.202 141.962 135.59 141.962 135.988C141.962 136.344 142.035 136.69 142.182 137.026C142.35 137.34 142.434 137.676 142.434 138.032C142.434 138.493 142.35 138.933 142.182 139.353C142.035 139.772 141.962 140.212 141.962 140.673C141.962 141.281 142.035 141.889 142.182 142.497C142.35 143.105 142.56 143.702 142.811 144.289C142.685 144.667 142.622 145.075 142.622 145.516C142.622 146.123 142.685 146.721 142.811 147.308C142.937 147.874 143 148.45 143 149.037C143 149.331 142.968 149.603 142.905 149.855C142.843 150.106 142.769 150.358 142.685 150.609C142.601 150.861 142.528 151.113 142.465 151.364C142.402 151.616 142.371 151.899 142.371 152.213C142.371 152.884 142.455 153.544 142.622 154.194C142.79 154.844 143 155.494 143.251 156.144ZM135.799 145.893C135.799 145.495 135.768 145.117 135.705 144.761C135.642 144.405 135.61 144.027 135.61 143.629C135.61 143.189 135.537 142.864 135.39 142.654C135.244 142.445 134.95 142.361 134.51 142.403H134.101C133.808 142.675 133.535 142.969 133.284 143.283C133.053 143.597 132.77 143.87 132.435 144.101C132.141 144.289 131.816 144.425 131.46 144.509C131.103 144.593 130.81 144.792 130.579 145.107H130.454C130.16 145.107 129.909 145.159 129.699 145.264C129.489 145.348 129.28 145.442 129.07 145.547C128.86 145.631 128.63 145.704 128.378 145.767C128.148 145.83 127.854 145.83 127.498 145.767C127.162 146.291 126.838 146.836 126.523 147.402C126.209 147.947 125.758 148.366 125.171 148.66L124.636 148.597C124.259 148.576 123.871 148.618 123.473 148.723C123.096 148.828 122.75 148.985 122.435 149.194C122.142 149.404 121.901 149.666 121.712 149.981C121.524 150.295 121.429 150.672 121.429 151.113C121.429 151.679 121.513 152.108 121.681 152.402C121.848 152.674 122.058 152.905 122.31 153.094C122.561 153.261 122.834 153.418 123.127 153.565C123.421 153.712 123.693 153.943 123.945 154.257C124.175 154.299 124.416 154.309 124.668 154.288C124.919 154.267 125.171 154.257 125.423 154.257C125.59 154.257 125.758 154.267 125.926 154.288C126.114 154.288 126.272 154.341 126.397 154.446C126.649 154.215 126.859 154.047 127.026 153.943C127.194 153.817 127.477 153.775 127.875 153.817C128.357 153.209 128.955 152.737 129.668 152.402C130.38 152.066 131.093 151.783 131.806 151.553C131.848 151.322 131.942 151.123 132.089 150.955C132.256 150.788 132.435 150.641 132.623 150.515C132.812 150.368 133.001 150.243 133.189 150.138C133.378 150.012 133.535 149.865 133.661 149.698C133.787 149.572 133.965 149.331 134.195 148.974C134.447 148.618 134.688 148.241 134.919 147.842C135.17 147.423 135.38 147.035 135.548 146.679C135.715 146.323 135.799 146.061 135.799 145.893Z" fill="#FCEEDB"/>
<path d="M108.194 150.735C108.194 151.196 108.11 151.689 107.942 152.213C107.796 152.716 107.575 153.209 107.282 153.691C107.009 154.152 106.685 154.582 106.307 154.98C105.951 155.357 105.553 155.651 105.112 155.861C104.882 156.448 104.546 156.982 104.106 157.464C103.687 157.946 103.32 158.449 103.006 158.974C102.544 159.162 102.115 159.414 101.716 159.728C101.339 160.022 100.962 160.326 100.584 160.64C100.207 160.975 99.8298 161.29 99.4525 161.583C99.0751 161.898 98.6664 162.139 98.2262 162.307C97.9746 162.411 97.7021 162.453 97.4086 162.432C97.1361 162.411 96.8531 162.432 96.5596 162.495C96.2661 162.579 95.9727 162.684 95.6792 162.81C95.3857 162.956 95.0922 163.093 94.7988 163.218C94.5053 163.365 94.2118 163.48 93.9183 163.564C93.6249 163.669 93.3209 163.722 93.0065 163.722C92.692 163.722 92.3881 163.659 92.0946 163.533C91.8221 163.407 91.5076 163.344 91.1513 163.344C90.8578 163.344 90.5748 163.376 90.3023 163.439C90.0298 163.501 89.7258 163.533 89.3904 163.533C89.1389 163.533 88.8454 163.491 88.51 163.407C88.1955 163.344 87.8811 163.25 87.5667 163.124C87.2522 162.998 86.9483 162.841 86.6548 162.652C86.3823 162.485 86.1622 162.307 85.9945 162.118H85.6171C85.0721 162.139 84.6109 162.045 84.2336 161.835C83.8563 161.646 83.4894 161.426 83.1331 161.175C82.7977 160.923 82.4518 160.682 82.0954 160.451C81.7391 160.221 81.2988 160.074 80.7748 160.011C80.649 159.487 80.387 159.099 79.9887 158.848C79.5904 158.596 79.1607 158.355 78.6995 158.125C78.5947 157.936 78.5003 157.747 78.4165 157.559C78.3536 157.349 78.3221 157.129 78.3221 156.898C78.0077 156.814 77.7247 156.678 77.4732 156.489C77.2426 156.28 77.0225 156.06 76.8128 155.829C76.6242 155.578 76.4355 155.326 76.2468 155.074C76.0582 154.823 75.8486 154.592 75.618 154.383C75.618 154.278 75.6284 154.184 75.6494 154.1C75.6704 153.995 75.6809 153.88 75.6809 153.754C75.6809 153.46 75.618 153.219 75.4922 153.031C75.3664 152.821 75.2197 152.632 75.052 152.465C74.8843 152.297 74.7061 152.129 74.5174 151.962C74.3497 151.773 74.224 151.553 74.1401 151.301C74.0353 151.071 73.9619 150.809 73.92 150.515C73.899 150.201 73.8781 149.886 73.8571 149.572C73.8571 149.257 73.8466 148.943 73.8257 148.628C73.8257 148.293 73.8047 148 73.7628 147.748C73.658 147.434 73.5007 147.13 73.2911 146.836C73.1025 146.522 72.9767 146.207 72.9138 145.893C72.809 145.557 72.7461 145.18 72.7251 144.761C72.7042 144.342 72.6937 143.922 72.6937 143.503C72.7146 143.063 72.7356 142.633 72.7566 142.214C72.7775 141.774 72.788 141.365 72.788 140.988C72.788 140.38 72.7042 139.782 72.5365 139.195C72.3688 138.587 72.2849 137.99 72.2849 137.403C72.2849 136.921 72.3478 136.355 72.4736 135.705C72.5994 135.055 72.7461 134.5 72.9138 134.038C72.9557 133.913 73.0186 133.787 73.1025 133.661C73.1863 133.535 73.2492 133.389 73.2911 133.221C73.3959 132.802 73.4379 132.361 73.4169 131.9C73.3959 131.418 73.4274 130.957 73.5112 130.517C73.5741 130.118 73.6789 129.741 73.8257 129.385C73.9934 129.007 74.0982 128.63 74.1401 128.253C74.203 127.708 74.2344 127.152 74.2344 126.586C74.2344 125.999 74.3288 125.433 74.5174 124.888C74.7271 124.448 75.0205 124.05 75.3979 123.693C75.7962 123.316 76.0687 122.97 76.2154 122.656C76.446 122.111 76.708 121.566 77.0015 121.021C77.295 120.476 77.4627 119.899 77.5046 119.291C77.9239 118.914 78.4584 118.516 79.1082 118.096C79.7581 117.677 80.4079 117.258 81.0578 116.839C81.7286 116.398 82.347 115.958 82.913 115.518C83.479 115.057 83.8877 114.596 84.1393 114.134H84.3908C84.4537 114.134 84.7157 114.061 85.1769 113.914C85.6381 113.747 86.1412 113.568 86.6862 113.38C87.2313 113.17 87.7344 112.982 88.1955 112.814C88.6777 112.625 88.9712 112.51 89.076 112.468C89.076 112.405 89.0969 112.363 89.1389 112.342C89.1808 112.3 89.2227 112.279 89.2646 112.279C89.621 112.279 90.1451 112.29 90.8368 112.311C91.5286 112.332 92.2413 112.363 92.975 112.405C93.7297 112.426 94.4319 112.468 95.0818 112.531C95.7526 112.573 96.2452 112.615 96.5596 112.657C96.8321 112.699 97.0942 112.782 97.3457 112.908C97.6182 113.034 97.8803 113.16 98.1318 113.286C98.3834 113.39 98.6349 113.495 98.8865 113.6C99.159 113.684 99.4315 113.715 99.704 113.694C100.039 114.114 100.385 114.407 100.742 114.575C101.098 114.721 101.507 114.921 101.968 115.172C102.136 115.277 102.366 115.497 102.66 115.832C102.953 116.168 103.215 116.419 103.446 116.587C103.676 116.776 103.97 116.943 104.326 117.09C104.683 117.237 104.945 117.436 105.112 117.688C105.238 117.876 105.364 118.128 105.49 118.442C105.636 118.757 105.762 119.092 105.867 119.449C105.972 119.784 106.056 120.119 106.119 120.455C106.181 120.769 106.213 121.052 106.213 121.304C106.213 121.765 106.129 122.237 105.961 122.719C105.815 123.201 105.595 123.641 105.301 124.039C105.008 124.417 104.641 124.731 104.2 124.983C103.781 125.234 103.31 125.36 102.786 125.36C102.261 125.36 101.832 125.276 101.496 125.108C101.161 124.941 100.867 124.731 100.616 124.48C100.385 124.207 100.165 123.903 99.9556 123.568C99.7459 123.211 99.5154 122.844 99.2638 122.467C99.0961 122.195 98.897 121.995 98.6664 121.87C98.4358 121.744 98.2262 121.597 98.0375 121.429C97.8488 121.22 97.6811 121.021 97.5344 120.832C97.4086 120.622 97.2304 120.455 96.9998 120.329C96.8112 120.245 96.5387 120.182 96.1823 120.14C95.8469 120.077 95.48 120.035 95.0818 120.015C94.7044 119.973 94.3271 119.931 93.9498 119.889C93.5725 119.847 93.258 119.805 93.0065 119.763C92.7759 119.679 92.5453 119.606 92.3147 119.543C92.1051 119.459 91.885 119.417 91.6544 119.417C91.5286 119.417 91.4133 119.428 91.3085 119.449C91.2037 119.469 91.0884 119.501 90.9626 119.543C90.7949 119.711 90.6586 119.773 90.5538 119.732C90.47 119.69 90.3442 119.669 90.1765 119.669C89.925 119.669 89.6734 119.752 89.4219 119.92C89.1913 120.067 88.8454 120.14 88.3842 120.14H88.2584C88.0698 120.434 87.8182 120.675 87.5038 120.863C87.1893 121.052 86.8539 121.23 86.4976 121.398C86.1622 121.566 85.8268 121.744 85.4914 121.933C85.1769 122.121 84.9149 122.362 84.7053 122.656C84.6005 122.823 84.5376 122.991 84.5166 123.159C84.4956 123.327 84.4327 123.494 84.3279 123.662C84.0345 124.123 83.7095 124.574 83.3532 125.014C83.0178 125.433 82.7138 125.884 82.4413 126.366C82.1897 126.848 81.9382 127.32 81.6866 127.781C81.4351 128.221 81.1311 128.651 80.7748 129.07C80.8167 129.217 80.8377 129.353 80.8377 129.479C80.8377 129.605 80.8377 129.731 80.8377 129.856C80.8377 130.297 80.7957 130.695 80.7119 131.051C80.628 131.387 80.5232 131.733 80.3974 132.089C80.2926 132.445 80.1983 132.844 80.1145 133.284C80.0306 133.724 79.9887 134.238 79.9887 134.825C79.9887 135.181 79.9153 135.474 79.7686 135.705C79.6218 135.936 79.5485 136.177 79.5485 136.428C79.5485 136.68 79.5589 137.089 79.5799 137.655C79.6218 138.2 79.6742 138.776 79.7371 139.384C79.8 139.971 79.8734 140.526 79.9572 141.05C80.0411 141.575 80.1249 141.941 80.2088 142.151C80.2507 142.319 80.3136 142.465 80.3974 142.591C80.4813 142.696 80.5442 142.832 80.5861 143C80.6909 143.482 80.7328 143.964 80.7119 144.446C80.6909 144.929 80.7748 145.411 80.9634 145.893L81.4037 146.333C81.5085 146.627 81.5504 146.931 81.5294 147.245C81.5294 147.559 81.5609 147.884 81.6238 148.22C81.8753 148.325 82.0011 148.44 82.0011 148.566C82.0011 148.691 82.0011 148.849 82.0011 149.037C82.0011 149.226 82.0849 149.436 82.2526 149.666C82.4203 149.897 82.5985 150.148 82.7872 150.421C82.9968 150.672 83.1855 150.945 83.3532 151.238C83.5418 151.532 83.6467 151.836 83.6676 152.15C84.3175 152.632 84.8206 153.073 85.1769 153.471C85.5542 153.848 85.9211 154.184 86.2775 154.477C86.6548 154.771 87.0845 155.022 87.5667 155.232C88.0698 155.42 88.793 155.567 89.7363 155.672C89.904 155.672 90.0717 155.703 90.2394 155.766C90.4071 155.829 90.5748 155.861 90.7425 155.861C91.015 155.861 91.2561 155.808 91.4657 155.703C91.6753 155.599 91.9059 155.483 92.1575 155.357C92.43 155.232 92.7549 155.116 93.1322 155.012C93.5096 154.907 94.0022 154.854 94.6101 154.854C94.8407 154.854 94.9769 154.771 95.0189 154.603C95.0608 154.435 95.1656 154.299 95.3333 154.194C95.4172 154.152 95.5639 154.1 95.7735 154.037C96.0041 153.974 96.2557 153.901 96.5282 153.817C96.8217 153.733 97.1151 153.639 97.4086 153.534C97.7231 153.408 97.9956 153.282 98.2262 153.156C98.7712 152.842 99.2533 152.465 99.6726 152.024C100.113 151.584 100.595 151.217 101.119 150.924C101.308 150.253 101.591 149.645 101.968 149.1C102.366 148.534 102.712 147.958 103.006 147.371H103.194C103.383 147.371 103.561 147.329 103.729 147.245C103.918 147.161 104.096 147.067 104.263 146.962C104.431 146.836 104.599 146.731 104.766 146.648C104.955 146.564 105.133 146.522 105.301 146.522C105.49 146.522 105.647 146.553 105.773 146.616C105.919 146.679 106.066 146.752 106.213 146.836C106.36 146.899 106.506 146.962 106.653 147.025C106.821 147.088 106.999 147.119 107.188 147.119C107.481 147.664 107.722 148.241 107.911 148.849C108.1 149.457 108.194 150.085 108.194 150.735Z" fill="#FCEEDB"/>
<path d="M239.784 62.103C239.606 62.8865 239.339 63.6522 238.983 64.4001C238.663 65.148 238.324 65.8959 237.968 66.6438C237.648 67.3918 237.345 68.1575 237.06 68.941C236.811 69.6889 236.668 70.4724 236.633 71.2915C236.561 71.7545 236.455 72.0573 236.312 72.1997C236.17 72.3066 236.009 72.4312 235.831 72.5737C235.653 72.7161 235.493 72.9298 235.35 73.2147C235.244 73.4996 235.19 74.0161 235.19 74.764C235.19 75.2269 235.137 75.8858 235.03 76.7406C234.923 77.5953 234.763 78.5569 234.549 79.6253C234.335 80.6582 234.086 81.7444 233.801 82.8841C233.552 83.9881 233.267 85.0388 232.946 86.036C232.626 86.9975 232.288 87.8345 231.931 88.5468C231.611 89.2591 231.273 89.7399 230.916 89.9892C230.81 90.2741 230.738 90.5768 230.703 90.8973C230.703 91.1823 230.667 91.4672 230.596 91.7521C230.525 92.037 230.4 92.2863 230.222 92.5C230.08 92.7137 229.955 92.9274 229.848 93.1411C229.528 94.067 229.314 94.7259 229.207 95.1177C229.136 95.545 229.029 95.8656 228.886 96.0793C228.78 96.3286 228.548 96.5779 228.192 96.8272C227.836 97.0765 227.213 97.486 226.322 98.0559C226.002 98.3408 225.574 98.6435 225.04 98.964C224.506 99.3202 224.025 99.4982 223.598 99.4982C222.957 99.4982 222.351 99.3736 221.781 99.1243C221.212 98.9106 220.659 98.6257 220.125 98.2695C219.591 97.949 219.039 97.6107 218.469 97.2545C217.935 96.8984 217.383 96.5957 216.813 96.3464V96.0793C216.813 95.7943 216.706 95.4916 216.493 95.1711C216.279 94.8506 216.172 94.5478 216.172 94.2629L216.493 93.9424C216.421 93.4794 216.332 93.0342 216.225 92.6068C216.119 92.1795 216.065 91.7343 216.065 91.2713C216.065 90.9508 216.261 90.3097 216.653 89.3481C217.045 88.3509 217.508 87.3003 218.042 86.1962C218.576 85.0922 219.092 84.0594 219.591 83.0978C220.125 82.1006 220.517 81.4417 220.766 81.1212C221.087 80.6938 221.461 80.3198 221.888 79.9993C222.316 79.6432 222.636 79.2158 222.85 78.7172C223.135 78.0049 223.259 77.2392 223.224 76.42C223.224 75.6009 223.313 74.8352 223.491 74.1229C223.598 73.7311 223.776 73.3928 224.025 73.1079C224.274 72.7874 224.47 72.4312 224.613 72.0394C224.826 71.2559 224.88 70.4724 224.773 69.6889C224.702 68.9054 224.755 68.1575 224.933 67.4452C225.04 66.8753 225.236 66.2877 225.521 65.6823C225.841 65.0768 226.002 64.4892 226.002 63.9193C226.002 63.4207 225.948 62.9577 225.841 62.5304C225.735 62.0674 225.681 61.5866 225.681 61.088C225.681 60.1976 225.699 59.3429 225.735 58.5237C225.77 57.7046 225.788 56.8855 225.788 56.0663C225.788 54.4637 225.574 53.0035 225.147 51.6858C224.755 50.3324 223.883 49.2462 222.529 48.427L222.048 47.6257C221.942 47.5545 221.835 47.5545 221.728 47.6257C221.621 47.6969 221.479 47.7325 221.301 47.7325C221.087 47.7325 220.891 47.6257 220.713 47.412C220.57 47.1627 220.339 46.9134 220.018 46.6641C219.734 46.3792 219.324 46.1299 218.79 45.9162C218.291 45.6669 217.597 45.5422 216.706 45.5422C215.531 45.5422 214.516 45.7915 213.661 46.2901C212.842 46.7531 212.076 47.3408 211.364 48.0531C210.652 48.7297 209.957 49.4598 209.281 50.2434C208.604 50.9913 207.838 51.6501 206.984 52.22C207.019 52.7542 206.948 53.1994 206.77 53.5555C206.592 53.9117 206.36 54.25 206.075 54.5705C205.826 54.8554 205.541 55.1582 205.221 55.4787C204.936 55.7636 204.686 56.102 204.473 56.4937C204.366 56.7074 204.312 56.9567 204.312 57.2416C204.312 57.4909 204.259 57.7224 204.152 57.9361C203.867 58.3635 203.493 58.7374 203.03 59.058C202.603 59.3429 202.282 59.7702 202.069 60.3401C201.819 60.8743 201.695 61.4619 201.695 62.103C201.695 62.7084 201.659 63.2783 201.588 63.8125C201.588 64.0974 201.534 64.3289 201.428 64.507C201.356 64.6851 201.267 64.8631 201.161 65.0412C201.054 65.1837 200.947 65.3261 200.84 65.4686C200.733 65.611 200.662 65.7891 200.626 66.0028C200.519 66.8219 200.466 67.6411 200.466 68.4602C200.466 69.2793 200.27 70.0985 199.878 70.9176C200.163 71.7367 200.466 72.5559 200.787 73.375C201.107 74.1585 201.267 74.9955 201.267 75.8858C201.267 76.9186 201.107 77.9337 200.787 78.9309C200.466 79.9281 200.306 80.9431 200.306 81.9759C200.306 82.8663 200.519 83.632 200.947 84.273C200.448 85.662 200.074 87.0866 199.825 88.5468C199.576 89.9714 199.255 91.3959 198.863 92.8205C198.436 93.2123 197.937 93.4972 197.368 93.6753C196.798 93.8533 196.246 93.9424 195.712 93.9424C194.679 93.9424 193.664 93.8177 192.666 93.5684C191.669 93.3547 190.672 93.2123 189.675 93.1411C189.568 92.7137 189.354 92.3575 189.034 92.0726C188.749 91.7521 188.428 91.4494 188.072 91.1644C187.752 90.8795 187.467 90.559 187.217 90.2029C186.968 89.8111 186.844 89.3303 186.844 88.7605C186.844 88.2619 186.986 87.7098 187.271 87.1044C187.591 86.4989 187.805 85.9291 187.912 85.3949C187.983 84.8963 187.983 84.3799 187.912 83.8457C187.841 83.3114 187.805 82.7594 187.805 82.1896C187.805 81.228 187.965 80.2486 188.286 79.2514C188.642 78.2542 188.856 77.2392 188.927 76.2063C188.963 75.6721 188.98 75.1201 188.98 74.5503C188.98 73.9448 188.998 73.3572 189.034 72.7874C189.069 72.1819 189.141 71.5943 189.247 71.0244C189.39 70.4546 189.639 69.956 189.995 69.5286C189.889 69.1369 189.782 68.7451 189.675 68.3533C189.604 67.926 189.568 67.5164 189.568 67.1246C189.568 66.7329 189.639 66.3767 189.782 66.0562C189.924 65.7001 189.995 65.3617 189.995 65.0412C189.995 64.7207 189.889 64.4714 189.675 64.2933C189.461 64.0796 189.354 63.8125 189.354 63.492L189.675 63.1714C189.604 62.7441 189.532 62.3345 189.461 61.9427C189.39 61.5154 189.354 61.088 189.354 60.6606C189.354 59.6634 189.515 58.7196 189.835 57.8293C190.191 56.9033 190.369 55.9417 190.369 54.9445C190.369 54.1253 190.298 53.3418 190.156 52.5939C190.049 51.8104 189.995 51.0269 189.995 50.2434C189.995 49.7091 190.049 49.1927 190.156 48.6941C190.298 48.1599 190.423 47.6435 190.53 47.1449C190.672 46.6463 190.797 46.1477 190.904 45.6491C191.046 45.1149 191.117 44.5807 191.117 44.0464C191.117 43.6191 191.046 43.2095 190.904 42.8177C190.797 42.426 190.654 42.0342 190.476 41.6425C190.334 41.2507 190.191 40.8589 190.049 40.4672C189.942 40.0754 189.889 39.6658 189.889 39.2385C189.889 37.529 190.316 35.9085 191.171 34.3771C192.025 32.8457 193.058 31.5101 194.269 30.3705C194.34 30.3705 194.412 30.3883 194.483 30.4239C194.554 30.4595 194.625 30.4773 194.697 30.4773C195.088 30.4773 195.427 30.4061 195.712 30.2636C196.032 30.0855 196.353 29.9965 196.673 29.9965C197.599 29.9965 198.4 30.228 199.077 30.691C199.789 31.1184 200.519 31.4745 201.267 31.7594C201.766 33.1128 202.176 34.4839 202.496 35.8729C202.852 37.2619 203.03 38.7043 203.03 40.2001C203.422 40.0932 203.778 39.9508 204.099 39.7727C204.455 39.559 204.793 39.3453 205.114 39.1316C205.47 38.9179 205.808 38.7221 206.129 38.544C206.485 38.3303 206.877 38.1878 207.304 38.1166C207.66 37.8673 207.963 37.5824 208.212 37.2619C208.462 36.9057 208.693 36.5496 208.907 36.1934C209.156 35.8373 209.387 35.4989 209.601 35.1784C209.85 34.8223 210.135 34.5196 210.456 34.2702C210.883 33.9497 211.56 33.6114 212.486 33.2552C213.448 32.8991 214.445 32.5786 215.478 32.2936C216.546 31.9731 217.579 31.7238 218.576 31.5457C219.573 31.3321 220.339 31.2252 220.873 31.2252C221.514 31.2252 222.084 31.2964 222.583 31.4389C223.117 31.5457 223.615 31.706 224.078 31.9197C224.577 32.0978 225.058 32.3114 225.521 32.5608C226.019 32.7744 226.554 32.9881 227.124 33.2018C227.337 33.273 227.551 33.3265 227.765 33.3621C227.978 33.3621 228.228 33.4155 228.512 33.5223C228.94 33.7004 229.314 33.9497 229.634 34.2702C229.99 34.5552 230.347 34.8579 230.703 35.1784C231.059 35.4989 231.415 35.8017 231.771 36.0866C232.163 36.3359 232.573 36.5318 233 36.6742C233.214 37.2797 233.499 37.8139 233.855 38.2769C234.246 38.7399 234.692 39.1672 235.19 39.559C235.297 40.3069 235.493 41.0192 235.778 41.6959C236.098 42.3369 236.401 42.9958 236.686 43.6725C237.007 44.3135 237.291 44.9724 237.541 45.6491C237.79 46.2901 237.915 46.9846 237.915 47.7325C237.915 48.1955 237.861 48.6051 237.754 48.9612C237.648 49.2818 237.594 49.6379 237.594 50.0297C237.594 50.3502 237.648 50.5995 237.754 50.7776C237.897 50.9557 238.022 51.1337 238.128 51.3118C238.271 51.4543 238.396 51.6323 238.502 51.846C238.645 52.0241 238.716 52.2556 238.716 52.5405C238.716 53.3596 238.68 54.161 238.609 54.9445C238.538 55.728 238.502 56.5293 238.502 57.3485C238.502 58.1676 238.591 58.9867 238.769 59.8059C238.948 60.625 239.286 61.3907 239.784 62.103Z" fill="#FCEEDB"/>
<path d="M173.866 24.9749C173.866 27.3254 173.35 29.4979 172.317 31.4923C171.32 33.4511 170.02 35.2675 168.417 36.9413C167.705 37.6536 166.921 38.3125 166.067 38.9179C165.248 39.5234 164.535 40.2357 163.93 41.0548H163.609C163.111 41.0548 162.63 41.1082 162.167 41.2151C161.74 41.3219 161.312 41.3753 160.885 41.3753C160.386 41.3753 159.977 41.2685 159.656 41.0548C159.264 40.5206 158.89 39.933 158.534 39.2919C158.178 38.6508 158 37.9742 158 37.2619C158 36.2647 158.231 35.4455 158.694 34.8045C159.157 34.1634 159.674 33.5758 160.244 33.0415C160.814 32.5073 161.33 31.9375 161.793 31.3321C162.256 30.7266 162.487 29.9609 162.487 29.0349C162.487 28.3939 162.398 27.8952 162.22 27.5391C162.078 27.1473 161.882 26.809 161.633 26.5241C161.383 26.2392 161.098 25.9543 160.778 25.6693C160.493 25.3844 160.226 25.0105 159.977 24.5475V23.479C159.905 22.375 160.03 21.4134 160.351 20.5943C160.707 19.7751 161.063 18.867 161.419 17.8698C162.523 17.3355 163.502 16.8904 164.357 16.5342C165.212 16.1781 166.263 16 167.509 16C167.865 16 168.257 16.1068 168.684 16.3205C169.147 16.4986 169.593 16.7301 170.02 17.015C170.447 17.2999 170.839 17.6205 171.195 17.9766C171.551 18.2971 171.818 18.5999 171.997 18.8848C172.175 19.1697 172.299 19.5793 172.37 20.1135C172.477 20.6121 172.584 21.0395 172.691 21.3956C172.869 21.823 173.029 22.1435 173.172 22.3572C173.314 22.5709 173.439 22.7846 173.546 22.9983C173.653 23.1763 173.724 23.4078 173.759 23.6927C173.831 23.9777 173.866 24.405 173.866 24.9749Z" fill="#FCEEDB"/>
</svg>
