<svg width="1360" height="1140" viewBox="0 0 136 114" fill="none" xmlns="http://www.w3.org/2000/svg">
<path fill-rule="evenodd" clip-rule="evenodd" d="M33.0839 4.80441C36.701 1.32567 41.2961 0 45.3428 0C48.1488 0 50.9441 1.18822 53.0329 2.24188C55.2928 3.38182 57.6395 4.8546 59.7175 6.19028C60.1755 6.48469 60.6182 6.77086 61.0464 7.04772C62.6608 8.09132 64.0708 9.00279 65.3279 9.72587C66.1085 10.1748 66.6844 10.4646 67.085 10.6303C67.134 10.6506 67.1766 10.6674 67.2131 10.6812C68.5586 10.662 69.4465 10.5345 70.7963 10.3407C71.1064 10.2962 71.4408 10.2482 71.8108 10.1972C73.9875 9.89719 76.7244 9.6106 81.5124 9.6106C86.3005 9.6106 89.0374 9.89719 91.2141 10.1972C91.584 10.2482 91.9185 10.2962 92.2285 10.3407C93.5784 10.5345 94.4663 10.662 95.8118 10.6812C95.8482 10.6674 95.8908 10.6506 95.9398 10.6303C96.3405 10.4646 96.9163 10.1748 97.6969 9.72587C98.9541 9.0028 100.364 8.09134 101.978 7.04776C102.407 6.77089 102.849 6.48471 103.307 6.19028C105.385 4.8546 107.732 3.38182 109.992 2.24188C112.081 1.18822 114.876 0 117.682 0C121.729 0 126.324 1.32567 129.941 4.80441C133.635 8.35742 135.734 13.599 135.734 20.2961L135.734 33.1154C135.73 35.1083 135.428 39.095 134.411 42.4238C134.082 43.5006 133.54 44.9994 132.586 46.3713C134.365 50.2599 135.191 54.2514 135.565 58.0754C135.951 62.0195 135.864 66.1945 135.789 69.8495C135.76 71.217 135.734 72.5118 135.734 73.6944C135.734 89.7181 125.858 99.7782 114.624 105.546C103.534 111.239 90.4241 113.212 81.5124 113.212C72.6008 113.212 59.4905 111.239 48.4008 105.546C37.1664 99.7782 27.2912 89.7181 27.2912 73.6944C27.2912 72.5118 27.2644 71.217 27.2361 69.8495C27.1604 66.1945 27.074 62.0195 27.4597 58.0754C27.8336 54.2511 28.6605 50.2592 30.4394 46.3704C29.4862 44.9983 28.9442 43.4997 28.6157 42.4238C27.5997 39.0963 27.2984 35.1132 27.2912 33.1319L27.2911 33.1125L27.2912 20.2961C27.2912 13.599 29.3897 8.35741 33.0839 4.80441ZM38.1936 36.0879C38.4638 35.8522 38.7401 35.6186 39.0226 35.3872C41.3043 33.5176 44.67 33.8511 46.5402 36.1321C48.4104 38.413 48.0768 41.7778 45.7951 43.6474C44.3551 44.8273 43.2106 46.0304 42.2796 47.2552C39.6695 50.7013 38.5306 54.6341 38.0926 59.1144C37.7719 62.3941 37.8383 65.5503 37.9098 68.9534C37.9417 70.4735 37.9747 72.0428 37.9747 73.6944C37.9747 84.3698 44.2303 91.3983 53.2812 96.0447C62.4768 100.765 73.8063 102.531 81.5124 102.531C89.2186 102.531 100.548 100.765 109.744 96.0447C118.795 91.3983 125.05 84.3698 125.05 73.6944C125.05 72.0428 125.083 70.4735 125.115 68.9534C125.187 65.5503 125.253 62.394 124.932 59.1144C124.494 54.6337 123.355 50.7004 120.744 47.2541C119.813 46.0296 118.669 44.827 117.23 43.6474C114.948 41.7778 114.614 38.413 116.485 36.1321C118.355 33.8511 121.721 33.5176 124.002 35.3872C124.285 35.6192 124.562 35.8534 124.833 36.0897C124.981 34.9161 125.049 33.812 125.05 33.1V20.2961C125.05 15.8856 123.728 13.6492 122.534 12.5012C121.263 11.2789 119.503 10.6803 117.682 10.6803C117.648 10.6836 117.406 10.7074 116.902 10.8727C116.349 11.0546 115.651 11.3502 114.805 11.7771C113.093 12.6404 111.163 13.8386 109.085 15.1738C108.701 15.4209 108.308 15.675 107.911 15.9323C106.269 16.994 104.548 18.1073 103.025 18.9833C102.064 19.536 101.036 20.0809 100.024 20.4994C99.1109 20.877 97.722 21.3641 96.1763 21.3641C93.8025 21.3641 92.1156 21.1188 90.5796 20.8954C90.3007 20.8548 90.0269 20.815 89.7547 20.7775C88.0388 20.5409 85.7898 20.2909 81.5124 20.2909C77.2351 20.2909 74.9861 20.5409 73.2701 20.7775C72.998 20.815 72.7241 20.8548 72.4453 20.8954C70.9092 21.1188 69.2224 21.3641 66.8486 21.3641C65.3028 21.3641 63.9139 20.877 63.0009 20.4994C61.9888 20.0809 60.9608 19.536 60 18.9833C58.4769 18.1073 56.7557 16.9939 55.1143 15.9322C54.7167 15.675 54.3237 15.4209 53.9394 15.1738C51.8621 13.8386 49.9315 12.6404 48.2202 11.7771C47.3738 11.3502 46.6763 11.0546 46.1224 10.8727C45.6191 10.7074 45.3778 10.6841 45.3441 10.6809C43.5228 10.6809 41.7618 11.2789 40.4909 12.5012C39.2972 13.6492 37.9747 15.8856 37.9747 20.2961V33.1018C37.9779 33.8158 38.0458 34.9175 38.1936 36.0879Z" fill="#C29B87" fill-opacity="0.64"/>
<path fill-rule="evenodd" clip-rule="evenodd" d="M19.4984 4.80441C23.1154 1.32567 27.7106 0 31.7573 0C34.5633 0 37.3586 1.18822 39.4474 2.24188C41.7073 3.38182 44.054 4.8546 46.132 6.19028C46.59 6.48469 47.0326 6.77086 47.4609 7.04772C49.0753 8.09132 50.4853 9.00279 51.7424 9.72587C52.523 10.1748 53.0989 10.4646 53.4995 10.6303C53.5485 10.6506 53.5911 10.6674 53.6276 10.6812C54.9731 10.662 55.861 10.5345 57.2108 10.3407C57.5209 10.2962 57.8553 10.2482 58.2253 10.1972C60.402 9.89719 63.1389 9.6106 67.9269 9.6106C72.7149 9.6106 75.4519 9.89719 77.6285 10.1972C77.9985 10.2482 78.3329 10.2962 78.643 10.3407C79.9929 10.5345 80.8807 10.662 82.2263 10.6812C82.2627 10.6674 82.3053 10.6506 82.3543 10.6303C82.755 10.4646 83.3308 10.1748 84.1114 9.72587C85.3685 9.0028 86.7785 8.09134 88.3928 7.04776C88.8211 6.77089 89.2638 6.48471 89.7219 6.19028C91.7998 4.8546 94.1466 3.38182 96.4064 2.24188C98.4953 1.18822 101.291 0 104.097 0C108.143 0 112.738 1.32567 116.355 4.80441C120.05 8.35742 122.148 13.599 122.148 20.2961L122.148 33.1154C122.145 35.1083 121.843 39.095 120.826 42.4238C120.497 43.5006 119.954 44.9994 119 46.3713C120.779 50.2599 121.606 54.2514 121.98 58.0754C122.365 62.0195 122.279 66.1945 122.203 69.8495C122.175 71.217 122.148 72.5118 122.148 73.6944C122.148 89.7181 112.273 99.7782 101.039 105.546C89.9489 111.239 76.8385 113.212 67.9269 113.212C59.0153 113.212 45.905 111.239 34.8153 105.546C23.5809 99.7782 13.7056 89.7181 13.7056 73.6944C13.7056 72.5118 13.6789 71.217 13.6506 69.8495C13.5749 66.1945 13.4885 62.0195 13.8742 58.0754C14.2481 54.2511 15.075 50.2592 16.8539 46.3704C15.9007 44.9983 15.3587 43.4997 15.0302 42.4238C14.0142 39.0963 13.7129 35.1132 13.7057 33.1319L13.7056 33.1125L13.7056 20.2961C13.7056 13.599 15.8042 8.35741 19.4984 4.80441ZM24.6081 36.0879C24.8783 35.8522 25.1546 35.6186 25.4371 35.3872C27.7188 33.5176 31.0845 33.8511 32.9547 36.1321C34.8249 38.413 34.4913 41.7778 32.2096 43.6474C30.7695 44.8273 29.6251 46.0304 28.6941 47.2552C26.084 50.7013 24.9451 54.6341 24.5071 59.1144C24.1864 62.3941 24.2527 65.5503 24.3243 68.9534C24.3562 70.4735 24.3892 72.0428 24.3892 73.6944C24.3892 84.3698 30.6448 91.3983 39.6957 96.0447C48.8913 100.765 60.2207 102.531 67.9269 102.531C75.6331 102.531 86.9625 100.765 96.1582 96.0447C105.209 91.3983 111.465 84.3698 111.465 73.6944C111.465 72.0428 111.498 70.4735 111.53 68.9534C111.601 65.5503 111.667 62.394 111.347 59.1144C110.909 54.6337 109.77 50.7004 107.159 47.2541C106.228 46.0296 105.084 44.827 103.644 43.6474C101.363 41.7778 101.029 38.413 102.899 36.1321C104.769 33.8511 108.135 33.5176 110.417 35.3872C110.7 35.6192 110.977 35.8534 111.248 36.0897C111.396 34.9161 111.463 33.812 111.465 33.1V20.2961C111.465 15.8856 110.142 13.6492 108.948 12.5012C107.678 11.2789 105.918 10.6803 104.097 10.6803C104.063 10.6836 103.82 10.7074 103.317 10.8727C102.763 11.0546 102.066 11.3502 101.219 11.7771C99.5078 12.6404 97.5772 13.8386 95.4999 15.1738C95.1156 15.4209 94.7226 15.675 94.325 15.9323C92.6836 16.994 90.9624 18.1073 89.4393 18.9833C88.4785 19.536 87.4505 20.0809 86.4385 20.4994C85.5254 20.877 84.1365 21.3641 82.5908 21.3641C80.217 21.3641 78.5301 21.1188 76.9941 20.8954C76.7152 20.8548 76.4413 20.815 76.1692 20.7775C74.4533 20.5409 72.2043 20.2909 67.9269 20.2909C63.6496 20.2909 61.4006 20.5409 59.6846 20.7775C59.4125 20.815 59.1386 20.8548 58.8598 20.8954C57.3237 21.1188 55.6369 21.3641 53.2631 21.3641C51.7173 21.3641 50.3284 20.877 49.4154 20.4994C48.4033 20.0809 47.3753 19.536 46.4145 18.9833C44.8914 18.1073 43.1702 16.9939 41.5288 15.9322C41.1312 15.675 40.7382 15.4209 40.3539 15.1738C38.2766 13.8386 36.346 12.6404 34.6347 11.7771C33.7883 11.3502 33.0908 11.0546 32.5369 10.8727C32.0336 10.7074 31.7923 10.6841 31.7585 10.6809C29.9373 10.6809 28.1763 11.2789 26.9054 12.5012C25.7117 13.6492 24.3892 15.8856 24.3892 20.2961V33.1018C24.3923 33.8158 24.4603 34.9175 24.6081 36.0879Z" fill="#72625A"/>
<path fill-rule="evenodd" clip-rule="evenodd" d="M17.2161 77.0335C12.9327 78.6806 9.51186 80.3883 8.63823 81.0236C6.19835 82.7979 2.79258 82.2437 1.03125 79.7859C-0.730083 77.3281 -0.180007 73.8973 2.25988 72.123C4.41019 70.5593 9.04896 68.424 13.3298 66.7779C15.5831 65.9114 17.9599 65.0946 20.1594 64.4862C22.2418 63.9102 24.5874 63.3986 26.6103 63.3986C29.6195 63.3986 32.059 65.856 32.059 68.8873C32.059 71.9186 29.6195 74.376 26.6103 74.376C26.1123 74.376 24.9303 74.5503 23.0447 75.0718C21.2763 75.561 19.2448 76.2534 17.2161 77.0335ZM103.795 68.8873C103.795 65.856 106.234 63.3986 109.244 63.3986C111.266 63.3986 113.612 63.9101 115.695 64.4861C117.895 65.0944 120.272 65.9112 122.526 66.7777C126.806 68.4232 131.448 70.5595 133.598 72.1261C136.037 73.9028 136.583 77.3342 134.82 79.7903C133.056 82.2464 129.65 82.7971 127.211 81.0204C126.344 80.3881 122.926 78.6814 118.641 77.0336C116.611 76.2535 114.579 75.5611 112.81 75.0719C110.924 74.5504 109.742 74.376 109.244 74.376C106.234 74.376 103.795 71.9186 103.795 68.8873ZM19.5268 97.9938C19.2425 98.2026 18.9717 98.4015 18.7159 98.5875C16.276 100.362 12.8703 99.8076 11.1089 97.3498C9.34761 94.892 9.89768 91.4612 12.3376 89.6869C12.5371 89.5418 12.7658 89.3735 13.02 89.1864C14.5323 88.0733 16.952 86.2923 19.562 84.7418C22.4018 83.0547 26.5357 80.9625 30.6464 80.9625C33.6556 80.9625 36.0951 83.4199 36.0951 86.4512C36.0951 89.4826 33.6556 91.9399 30.6464 91.9399C29.7151 91.9399 27.8012 92.5912 25.0977 94.1974C22.9928 95.4478 21.0623 96.8659 19.5268 97.9938ZM99.7589 86.4512C99.7589 83.4199 102.198 80.9625 105.208 80.9625C109.318 80.9625 113.452 83.0547 116.292 84.7418C118.902 86.2924 121.322 88.0733 122.834 89.1864C123.088 89.3735 123.317 89.5418 123.516 89.6869C125.956 91.4612 126.506 94.892 124.745 97.3498C122.984 99.8076 119.578 100.362 117.138 98.5875C116.882 98.4015 116.611 98.2026 116.327 97.9937C114.792 96.8659 112.861 95.4478 110.756 94.1974C108.053 92.5912 106.139 91.9399 105.208 91.9399C102.198 91.9399 99.7589 89.4826 99.7589 86.4512Z" fill="#72625A"/>
</svg>
