<svg width="56" height="56" viewBox="0 0 56 56" fill="none" xmlns="http://www.w3.org/2000/svg">
<path fill-rule="evenodd" clip-rule="evenodd" d="M12.1556 0.873966C22.6863 -0.291322 33.3137 -0.291322 43.8444 0.873966C49.675 1.52638 54.379 6.11023 55.0632 11.9513C56.3123 22.6141 56.3123 33.3858 55.0632 44.0485C54.379 49.8896 49.675 54.4735 43.8444 55.1259C33.3137 56.2914 22.6863 56.2914 12.1556 55.1259C6.32496 54.4735 1.62098 49.8896 0.936831 44.0485C-0.312277 33.3869 -0.312277 22.6163 0.936831 11.9547C1.28288 9.11699 2.57873 6.47906 4.61435 4.46848C6.64997 2.45791 9.30606 1.1925 12.1522 0.877364M28 11.0339C28.677 11.0339 29.3264 11.3024 29.8051 11.7803C30.2838 12.2582 30.5528 12.9065 30.5528 13.5824V25.4514H42.4421C43.1191 25.4514 43.7684 25.7199 44.2472 26.1979C44.7259 26.6758 44.9949 27.324 44.9949 27.9999C44.9949 28.6758 44.7259 29.324 44.2472 29.802C43.7684 30.2799 43.1191 30.5484 42.4421 30.5484H30.5528V42.4175C30.5528 43.0934 30.2838 43.7416 29.8051 44.2195C29.3264 44.6975 28.677 44.966 28 44.966C27.3229 44.966 26.6736 44.6975 26.1949 44.2195C25.7161 43.7416 25.4472 43.0934 25.4472 42.4175V30.5484H13.5579C12.8809 30.5484 12.2315 30.2799 11.7528 29.802C11.2741 29.324 11.0051 28.6758 11.0051 27.9999C11.0051 27.324 11.2741 26.6758 11.7528 26.1979C12.2315 25.7199 12.8809 25.4514 13.5579 25.4514H25.4472V13.5824C25.4472 12.9065 25.7161 12.2582 26.1949 11.7803C26.6736 11.3024 27.3229 11.0339 28 11.0339Z" fill="url(#paint0_linear_21_396)"/>
<defs>
<linearGradient id="paint0_linear_21_396" x1="28" y1="0" x2="28" y2="56" gradientUnits="userSpaceOnUse">
<stop stop-color="#9208C2"/>
<stop offset="1" stop-color="#309CFF"/>
</linearGradient>
</defs>
</svg>
