<svg width="61" height="61" viewBox="0 0 61 61" fill="none" xmlns="http://www.w3.org/2000/svg">
<path fill-rule="evenodd" clip-rule="evenodd" d="M50.3823 53.6299C45.0432 58.2235 38.096 61 30.5 61C22.904 61 15.9568 58.2235 10.6177 53.6299L23.6175 40.6288C22.3421 39.7604 21.2415 38.6599 20.3729 37.3847L7.36889 50.3809C2.77604 45.042 0 38.0953 0 30.5C0 22.9055 2.77547 15.9594 7.36747 10.6208L20.3729 23.6214C21.2415 22.3463 22.3422 21.2458 23.6175 20.3773L10.6194 7.3687C15.9582 2.77597 22.9048 0 30.5 0C38.0983 0 45.0475 2.77823 50.3872 7.37432L37.3825 20.3742L37.3856 20.3773C38.662 21.2454 39.7638 22.346 40.6332 23.6214L53.6311 10.6192C58.224 15.958 61 22.9047 61 30.5C61 38.0961 58.2234 45.0434 53.6297 50.3825L40.6271 37.3816C39.7586 38.6569 38.6579 39.7574 37.3825 40.6258L50.3823 53.6299ZM39.1267 39.1267C36.8388 41.4146 33.7356 42.7 30.5 42.7C27.2644 42.7 24.1612 41.4146 21.8733 39.1267C19.5854 36.8388 18.3 33.7356 18.3 30.5C18.3 27.2644 19.5854 24.1612 21.8733 21.8733C24.1612 19.5854 27.2644 18.3 30.5 18.3C33.7356 18.3 36.8388 19.5854 39.1267 21.8733C41.4146 24.1612 42.7 27.2644 42.7 30.5C42.7 33.7356 41.4146 36.8388 39.1267 39.1267Z" fill="url(#paint0_linear_29_438)"/>
<defs>
<linearGradient id="paint0_linear_29_438" x1="30.5" y1="0" x2="30.5" y2="61" gradientUnits="userSpaceOnUse">
<stop stop-color="#9208C2"/>
<stop offset="1" stop-color="#309CFF"/>
</linearGradient>
</defs>
</svg>
