<svg width="59" height="83" viewBox="0 0 59 83" fill="none" xmlns="http://www.w3.org/2000/svg">
<g filter="url(#filter0_d_3_122)">
<path d="M37.9192 32.1214C36.261 32.9723 34.3873 33.3113 32.536 33.0954C30.6848 32.8794 28.9395 32.1183 27.5216 30.9086C26.1037 29.6989 25.0772 28.0952 24.5724 26.3011C24.0676 24.5069 24.1073 22.6033 24.6864 20.8317C25.2655 19.0602 26.3579 17.5006 27.825 16.3511C29.2921 15.2015 31.0676 14.5138 32.9263 14.3752C34.7849 14.2366 36.6428 14.6533 38.2642 15.5726C39.8855 16.4918 41.1972 17.8721 42.0326 19.5381C42.5908 20.6355 42.9273 21.8322 43.0226 23.0597C43.118 24.2872 42.9704 25.5214 42.5884 26.6919C42.2063 27.8623 41.5973 28.9459 40.7961 29.8808C39.995 30.8156 39.0173 31.5834 37.9192 32.1401V32.1214ZM27.8787 1.78184C35.5758 -1.02589 44.376 -0.873192 50.9637 4.84197C52.355 5.98728 53.4487 7.45197 54.1517 9.11121C54.8154 11.2614 51.8176 8.89307 51.4094 8.58768C49.3318 7.16738 47.08 6.02052 44.7095 5.17541C31.7335 1.20222 19.4555 8.43499 11.8706 19.6815C8.77973 24.6416 6.42035 30.0216 4.86536 35.6553C4.72241 36.3456 4.49966 37.017 4.2016 37.6559C3.86816 38.2916 4.04891 35.9513 4.04891 35.8734C4.32719 33.5184 4.77501 31.1866 5.38888 28.8962C8.90399 16.64 16.6915 6.43437 27.8787 1.76002V1.78184ZM27.994 67.2009V39.8933C28.77 39.9712 29.5085 40.0086 30.2876 40.0086C33.8242 40.0197 37.2953 39.0546 40.3187 37.2196V67.1977C40.3187 69.7593 39.8513 71.6539 38.6983 72.888C38.1272 73.5142 37.4266 74.0086 36.6453 74.3368C35.8639 74.6651 35.0205 74.8193 34.1735 74.7889C33.3384 74.8187 32.5069 74.6641 31.7384 74.3361C30.9698 74.008 30.2829 73.5147 29.7266 72.8911C28.5799 71.6321 27.9816 69.7343 27.9816 67.204L27.994 67.2009Z" fill="url(#paint0_linear_3_122)"/>
</g>
<defs>
<filter id="filter0_d_3_122" x="0" y="0" width="58.2472" height="82.7926" filterUnits="userSpaceOnUse" color-interpolation-filters="sRGB">
<feFlood flood-opacity="0" result="BackgroundImageFix"/>
<feColorMatrix in="SourceAlpha" type="matrix" values="0 0 0 0 0 0 0 0 0 0 0 0 0 0 0 0 0 0 127 0" result="hardAlpha"/>
<feOffset dy="4"/>
<feGaussianBlur stdDeviation="2"/>
<feComposite in2="hardAlpha" operator="out"/>
<feColorMatrix type="matrix" values="0 0 0 0 0 0 0 0 0 0 0 0 0 0 0 0 0 0 0.25 0"/>
<feBlend mode="normal" in2="BackgroundImageFix" result="effect1_dropShadow_3_122"/>
<feBlend mode="normal" in="SourceGraphic" in2="effect1_dropShadow_3_122" result="shape"/>
</filter>
<linearGradient id="paint0_linear_3_122" x1="29.1236" y1="0" x2="29.1236" y2="74.7926" gradientUnits="userSpaceOnUse">
<stop stop-color="white"/>
<stop offset="0.5" stop-color="#BCCBFF"/>
<stop offset="1" stop-color="white"/>
</linearGradient>
</defs>
</svg>
