<svg width="62" height="61" viewBox="0 0 62 61" fill="none" xmlns="http://www.w3.org/2000/svg">
<g filter="url(#filter0_d_3_106)">
<path d="M30.8357 0C27.3115 0 23.8219 0.694125 20.5661 2.04274C17.3102 3.39136 14.3519 5.36806 11.86 7.85998C6.82732 12.8926 4 19.7184 4 26.8357C4 38.697 11.7018 48.7604 22.3556 52.3295C23.6974 52.5442 24.1267 51.7123 24.1267 50.9877C24.1267 50.3705 24.1267 48.6799 24.1267 46.4525C16.6933 48.0627 15.11 42.8565 15.11 42.8565C13.8755 39.7436 12.1312 38.9117 12.1312 38.9117C9.68916 37.2479 12.3191 37.3016 12.3191 37.3016C15.0026 37.4894 16.4249 40.0656 16.4249 40.0656C18.7596 44.1446 22.7045 42.937 24.2341 42.293C24.4756 40.5487 25.1733 39.3679 25.9247 38.697C19.9672 38.0261 13.7145 35.7183 13.7145 25.4939C13.7145 22.5151 14.7343 20.1267 16.4786 18.2214C16.2102 17.5505 15.271 14.7596 16.7469 11.1368C16.7469 11.1368 19.0011 10.4122 24.1267 13.874C26.2468 13.2836 28.5546 12.9885 30.8357 12.9885C33.1167 12.9885 35.4246 13.2836 37.5446 13.874C42.6702 10.4122 44.9244 11.1368 44.9244 11.1368C46.4003 14.7596 45.4611 17.5505 45.1927 18.2214C46.937 20.1267 47.9568 22.5151 47.9568 25.4939C47.9568 35.7451 41.6773 37.9993 35.6929 38.6702C36.659 39.5021 37.5446 41.1391 37.5446 43.6348V50.9877C37.5446 51.7123 37.9739 52.571 39.3426 52.3295C49.9963 48.7335 57.6713 38.697 57.6713 26.8357C57.6713 23.3115 56.9772 19.8219 55.6286 16.5661C54.2799 13.3102 52.3032 10.3519 49.8113 7.85998C47.3194 5.36806 44.3611 3.39136 41.1052 2.04274C37.8494 0.694125 34.3598 0 30.8357 0Z" fill="url(#paint0_linear_3_106)"/>
</g>
<defs>
<filter id="filter0_d_3_106" x="0" y="0" width="61.6713" height="60.3711" filterUnits="userSpaceOnUse" color-interpolation-filters="sRGB">
<feFlood flood-opacity="0" result="BackgroundImageFix"/>
<feColorMatrix in="SourceAlpha" type="matrix" values="0 0 0 0 0 0 0 0 0 0 0 0 0 0 0 0 0 0 127 0" result="hardAlpha"/>
<feOffset dy="4"/>
<feGaussianBlur stdDeviation="2"/>
<feComposite in2="hardAlpha" operator="out"/>
<feColorMatrix type="matrix" values="0 0 0 0 0 0 0 0 0 0 0 0 0 0 0 0 0 0 0.25 0"/>
<feBlend mode="normal" in2="BackgroundImageFix" result="effect1_dropShadow_3_106"/>
<feBlend mode="normal" in="SourceGraphic" in2="effect1_dropShadow_3_106" result="shape"/>
</filter>
<linearGradient id="paint0_linear_3_106" x1="30.8357" y1="0" x2="30.8357" y2="52.3711" gradientUnits="userSpaceOnUse">
<stop stop-color="white"/>
<stop offset="0.5" stop-color="#BCCBFF"/>
<stop offset="1" stop-color="white"/>
</linearGradient>
</defs>
</svg>
