<svg width="75" height="75" viewBox="0 0 75 75" fill="none" xmlns="http://www.w3.org/2000/svg">
<g filter="url(#filter0_d_3_103)">
<path d="M35.6677 25.146V50.6155V25.146ZM22.547 25.146V50.6155V25.146Z" fill="white"/>
<path fill-rule="evenodd" clip-rule="evenodd" d="M14.16 0.19101H60.2624C65.7185 0.19101 70.1415 4.61403 70.1415 10.0701V56.1725C70.1415 61.6286 65.7185 66.0516 60.2624 66.0516H14.16C8.7039 66.0516 4.28088 61.6286 4.28088 56.1725V10.0701C4.28088 4.61403 8.7039 0.19101 14.16 0.19101ZM27.3065 17.9425C27.3065 20.5711 25.1756 22.702 22.547 22.702C19.9185 22.702 17.7876 20.5711 17.7876 17.9425C17.7876 15.3139 19.9185 13.1831 22.547 13.1831C25.1756 13.1831 27.3065 15.3139 27.3065 17.9425ZM18.3021 25.1461V50.6156H26.7919V25.1461H18.3021ZM31.4227 25.1461V50.6156H39.9126V35.2338C40.356 33.1313 41.9328 31.3205 44.4149 31.3205C47.5021 31.3205 48.6598 33.6359 48.6598 37.109V50.6156H57.1497V36.08C57.1497 28.2333 53.0334 24.6315 47.3735 24.6315C43.1741 24.6315 40.9908 26.8849 39.9126 28.5446V25.1461H31.4227Z" fill="url(#paint0_linear_3_103)"/>
</g>
<defs>
<filter id="filter0_d_3_103" x="0.280884" y="0.19101" width="73.8606" height="73.8606" filterUnits="userSpaceOnUse" color-interpolation-filters="sRGB">
<feFlood flood-opacity="0" result="BackgroundImageFix"/>
<feColorMatrix in="SourceAlpha" type="matrix" values="0 0 0 0 0 0 0 0 0 0 0 0 0 0 0 0 0 0 127 0" result="hardAlpha"/>
<feOffset dy="4"/>
<feGaussianBlur stdDeviation="2"/>
<feComposite in2="hardAlpha" operator="out"/>
<feColorMatrix type="matrix" values="0 0 0 0 0 0 0 0 0 0 0 0 0 0 0 0 0 0 0.25 0"/>
<feBlend mode="normal" in2="BackgroundImageFix" result="effect1_dropShadow_3_103"/>
<feBlend mode="normal" in="SourceGraphic" in2="effect1_dropShadow_3_103" result="shape"/>
</filter>
<linearGradient id="paint0_linear_3_103" x1="37.2112" y1="0.19101" x2="37.2112" y2="66.0516" gradientUnits="userSpaceOnUse">
<stop stop-color="white"/>
<stop offset="0.5" stop-color="#BCCBFF"/>
<stop offset="1" stop-color="white"/>
</linearGradient>
</defs>
</svg>
