<svg width="59" height="59" viewBox="0 0 59 59" fill="none" xmlns="http://www.w3.org/2000/svg">
<path fill-rule="evenodd" clip-rule="evenodd" d="M58.427 29.2135C58.427 45.3476 45.3476 58.427 29.2135 58.427C13.0793 58.427 0 45.3476 0 29.2135C0 13.0793 13.0793 0 29.2135 0C45.3476 0 58.427 13.0793 58.427 29.2135ZM18.7776 39.6493H35.4613V22.5092C35.4613 22.4236 35.5297 22.3552 35.6153 22.3552H39.4838C39.5694 22.3552 39.6379 22.4236 39.6379 22.5092V39.6493C39.6379 41.9544 37.7721 43.8202 35.467 43.8202H22.9485C20.6434 43.8202 18.7776 41.9544 18.7776 39.6493ZM39.6436 18.7776C39.6436 16.4725 37.7778 14.6067 35.4727 14.6067H22.9485C20.6434 14.6067 18.7776 16.4725 18.7776 18.7776V35.9177C18.7776 36.0033 18.8461 36.0718 18.9317 36.0718H22.8002C22.8858 36.0718 22.9542 36.0033 22.9542 35.9177V18.7776H39.6436Z" fill="url(#paint0_linear_3_126)"/>
<defs>
<linearGradient id="paint0_linear_3_126" x1="29.2135" y1="0" x2="29.2135" y2="58.427" gradientUnits="userSpaceOnUse">
<stop stop-color="white"/>
<stop offset="0.5" stop-color="#BCCBFF"/>
<stop offset="1" stop-color="white"/>
</linearGradient>
</defs>
</svg>
